<svg version="1.1" xmlns="http://www.w3.org/2000/svg" xmlns:xlink="http://www.w3.org/1999/xlink" width="3876" height="3104" viewBox="0 0 3876 3104"><defs/><g transform="matrix(1,0,0,1,0,0)"><g><g><g><path fill="none" stroke="#d3d3d3" paint-order="fill stroke markers" d=" M 0 0 L 1200 0" stroke-miterlimit="10" stroke-opacity="0.8" stroke-dasharray="5"/></g><g><path fill="none" stroke="#d3d3d3" paint-order="fill stroke markers" d=" M 0 0 L 0 800" stroke-miterlimit="10" stroke-opacity="0.8" stroke-dasharray="5"/></g></g><g id="_ED0DFDDE-E27F-470A-976A-5E6EDE716F51" bpmn2nodeid="_ED0DFDDE-E27F-470A-976A-5E6EDE716F51" transform="matrix(1,0,0,1,30,1028)"><g><path fill="none" stroke="none"/></g><g transform="matrix(1,0,0,1,0,0)"><path fill="#f2f2f2" stroke="none" id="_ED0DFDDE-E27F-470A-976A-5E6EDE716F51?shapeType=BACKGROUND" paint-order="stroke fill markers" d=" M 0 0 L 3794.888916015625 0 L 3794.888916015625 500.22216796875 L 0 500.22216796875 L 0 0 Z Z"/></g><g transform="matrix(1,0,0,1,0,0)"><path fill="none" stroke="#000000" id="_ED0DFDDE-E27F-470A-976A-5E6EDE716F51?shapeType=BORDER&amp;renderType=STROKE" paint-order="fill stroke markers" d=" M 0 0 L 3794.888916015625 0 L 3794.888916015625 500.22216796875 L 0 500.22216796875 L 0 0 Z Z" stroke-miterlimit="10" stroke-width="0.5" stroke-dasharray=""/></g><g transform="matrix(-1.8369701987210297e-16,-1,1,-1.8369701987210297e-16,0,280.290771484375)"><text fill="#000000" stroke="none" font-family="Open Sans" font-size="12pt" font-style="normal" font-weight="normal" text-decoration="normal" x="30.1796875" y="12" text-anchor="middle" dominant-baseline="alphabetic">Director</text></g><g id="_6B4A633D-1CBC-47B9-8EE6-873D540CC529" bpmn2nodeid="_6B4A633D-1CBC-47B9-8EE6-873D540CC529" transform="matrix(1,0,0,1,1225,135)"><g><path fill="none" stroke="none"/></g><g transform="matrix(1,0,0,1,0,0)"><path fill="#ffffff" stroke="none" id="_6B4A633D-1CBC-47B9-8EE6-873D540CC529?shapeType=BACKGROUND" paint-order="stroke fill markers" d=" M 2 0 L 176 0 L 176 0 A 2 2 0 0 1 178 2 L 178 98.6666259765625 L 178 98.6666259765625 A 2 2 0 0 1 176 100.6666259765625 L 2 100.6666259765625 L 2 100.6666259765625 A 2 2 0 0 1 0 98.6666259765625 L 0 2 L 0 2.0000000000000004 A 2 2 0 0 1 1.9999999999999996 0 Z"/></g><g transform="matrix(1,0,0,1,0,0)"><path fill="none" stroke="#000000" id="_6B4A633D-1CBC-47B9-8EE6-873D540CC529?shapeType=BORDER&amp;renderType=STROKE" paint-order="fill stroke markers" d=" M 2 0 L 176 0 L 176 0 A 2 2 0 0 1 178 2 L 178 98.6666259765625 L 178 98.6666259765625 A 2 2 0 0 1 176 100.6666259765625 L 2 100.6666259765625 L 2 100.6666259765625 A 2 2 0 0 1 0 98.6666259765625 L 0 2 L 0 2.0000000000000004 A 2 2 0 0 1 1.9999999999999996 0 Z" stroke-miterlimit="10" stroke-width="1.5" stroke-dasharray=""/></g><g><g transform="matrix(0.06,0,0,0.06,9.4,9.4)"><g transform="matrix(1,0,0,1,0,0)"><path fill="#393f44" stroke="none" id="_6B4A633D-1CBC-47B9-8EE6-873D540CC529_task__eJRz__HdxE" paint-order="stroke fill markers" d=" M 0 0 M 16 445.2101 C 16 440.86867 18.784312 431.12906000000004 22.001325 424.21728 C 35.767643 394.6402 77.282944 359.28049 129 333.08362 C 144.51625 325.22398 157.34689 319.96394 167.80739 317.17416 C 171.93153 316.07426 175.72913 314.41389999999996 176.5251 313.36265 C 178.89361 310.23449999999997 180.91404 302.90781 181.72673 294.5 L 182.5 286.5 L 178.50715 283.45457 C 166.30327 274.14645 154.2837 251.67767 148.03953 226.5 C 145.61086 216.70715 145.05603000000002 215.46246 142.98364 215.1579 C 141.70332000000002 214.96974 138.08302 212.24302 134.93852 209.09852 C 123.23314 197.39314000000002 116.89146000000001 177.37556 121.43982000000001 166.48978 C 123.00204000000001 162.75088 128.15457 159.00970999999998 131.75 159.00374 C 134.44781 158.99974 134.47062 158.60296 132.91375 138.78796 C 130.92658 113.4962 134.27903 92.26542699999999 143.13217 74.075676 C 152.23162 55.379835 167.56889 42.88208 189.04934 36.659507000000005 C 210.20334 30.531504000000005 237.79666 30.531504000000005 258.95065999999997 36.659507000000005 C 300.04166 48.562968000000005 318.95842 83.80634 314.95504999999997 141 C 314.31982999999997 150.075 313.62402 157.78816 313.4088 158.14035 C 313.19359 158.49254000000002 314.57532 159.07295000000002 316.47931 159.43014000000002 C 328.92867 161.76565000000002 330.98619 177.01772000000003 321.49638 196.62092 C 316.90319 206.10912000000002 309.35724 214.50797 304.81732 215.18517000000003 C 303.02259 215.45289000000002 302.2931 217.14618000000002 299.94277999999997 226.50000000000003 C 296.65948 239.56693 294.47402 245.30522000000002 287.94764 257.99534000000006 C 282.49071999999995 268.60596000000004 273.03466 281.10922000000005 268.10756999999995 284.2288300000001 L 264.87062 286.27832000000006 L 265.51815999999997 292.88916000000006 C 266.34490999999997 301.32961000000006 268.63948999999997 309.8706000000001 270.87735999999995 312.83742000000007 C 272.06735 314.4150200000001 275.00244999999995 315.78963000000005 280.0630699999999 317.13941000000005 C 291.06929999999994 320.0750300000001 303.61700999999994 325.27420000000006 320.99999999999994 334.10171 C 369.81470999999993 358.89104000000003 410.84810999999996 393.75797 425.03216 422.5 C 429.06985999999995 430.68183 432 440.23198 432 445.2101 L 432 448 L 224 448 L 16 448 L 16 445.2101 Z"/></g></g></g><g transform="matrix(1,0,0,1,16.039999999999992,12.346625976562507)"><g transform="matrix(0.04,0,0,0.04,63.36,69.12)"><g transform="matrix(1,0,0,1,0,0)"><path fill="none" stroke="none"/></g><g transform="matrix(1,0,0,1,0,0)"><path fill="none" stroke="none"/></g></g></g><g transform="matrix(1,0,0,1,35,27.83331298828125)"><text fill="#000000" stroke="none" font-family="Open Sans" font-size="12pt" font-style="normal" font-weight="normal" text-decoration="normal" x="57.53515625" y="12" text-anchor="middle" dominant-baseline="alphabetic">Revisar Excusa  </text><text fill="#000000" stroke="none" font-family="Open Sans" font-size="12pt" font-style="normal" font-weight="normal" text-decoration="normal" x="57.53515625" y="27" text-anchor="middle" dominant-baseline="alphabetic">por Ausencia o </text><text fill="#000000" stroke="none" font-family="Open Sans" font-size="12pt" font-style="normal" font-weight="normal" text-decoration="normal" x="57.53515625" y="42" text-anchor="middle" dominant-baseline="alphabetic"> Llegada Tarde  </text></g></g><g id="_963E068A-70FA-47EB-AC66-0C8C97CDA850" bpmn2nodeid="_963E068A-70FA-47EB-AC66-0C8C97CDA850" transform="matrix(1,0,0,1,1481,157.3333740234375)"><g><path fill="none" stroke="none"/></g><g transform="matrix(0.125,0,0,0.125,0,0)"><g transform="matrix(1,0,0,1,0,0)"><path fill="#fef4ea" stroke="none" id="_963E068A-70FA-47EB-AC66-0C8C97CDA850?shapeType=BACKGROUND" paint-order="stroke fill markers" d=" M 0 0 M 224.4 4.3 C 216.4 4.3 208.4 7.3 202.3 13.399999999999999 L 13.5 202.2 C 1.3000000000000007 214.39999999999998 1.3000000000000007 234.2 13.5 246.39999999999998 L 202.2 435.09999999999997 C 208.29999999999998 441.2 216.39999999999998 444.2 224.29999999999998 444.2 C 232.2 444.2 240.29999999999998 441.2 246.39999999999998 435.09999999999997 L 435.09999999999997 246.39999999999998 C 447.29999999999995 234.2 447.29999999999995 214.39999999999998 435.09999999999997 202.2 L 246.5 13.4 C 240.4 7.3 232.4 4.3 224.4 4.3 L 224.4 4.3 Z"/></g><g><g transform="matrix(1,0,0,1,0,0)"><g transform="matrix(1,0,0,1,0,0)"><path fill="#ec7a08" stroke="none" id="_963E068A-70FA-47EB-AC66-0C8C97CDA850?shapeType=BORDER&amp;renderType=FILL" paint-order="stroke fill markers" d=" M 0 0 M 20.8 212.7 L 213.3 20.2 C 219.60000000000002 13.899999999999999 229.70000000000002 13.899999999999999 235.9 20.2 L 428.4 212.7 C 434.7 219 434.7 229.1 428.4 235.29999999999998 L 235.9 427.8 C 229.6 434.1 219.5 434.1 213.3 427.8 L 20.8 235.3 C 14.5 229.1 14.5 218.9 20.8 212.7 L 20.8 212.7 Z M 0 0 M 0 224 C 0 232.1 3.1 240.3 9.3 246.5 L 201.5 438.7 C 213.9 451.09999999999997 234.1 451.09999999999997 246.5 438.7 L 438.7 246.5 C 444.9 240.3 448 232.1 448 224 C 448 215.9 444.9 207.7 438.7 201.5 L 246.5 9.3 C 234.1 -3.0999999999999996 213.9 -3.0999999999999996 201.5 9.3 L 9.3 201.5 C 3.1 207.7 0 215.9 0 224 L 0 224 Z"/></g></g></g><g><g transform="matrix(1,0,0,1,0,0)"><g transform="matrix(1,0,0,1,0,0)"><path fill="#ec7a08" stroke="none" id="_963E068A-70FA-47EB-AC66-0C8C97CDA850_exclusive" paint-order="stroke fill markers" d=" M 0 0 M 298.2 269.2 C 298.2 272.59999999999997 297.09999999999997 275.3 294.7 277.7 L 277.7 294.7 C 275.3 297.09999999999997 272.59999999999997 298.2 269.2 298.2 C 265.8 298.2 263.09999999999997 297.09999999999997 260.7 294.7 L 224 258 L 187.2 294.8 C 184.79999999999998 297.2 182.1 298.3 178.7 298.3 C 175.29999999999998 298.3 172.6 297.2 170.2 294.8 L 153.2 277.8 C 150.79999999999998 275.40000000000003 149.7 272.7 149.7 269.3 C 149.7 265.90000000000003 150.79999999999998 263.2 153.2 260.8 L 190 224 L 153.2 187.2 C 150.79999999999998 184.79999999999998 149.7 182 149.7 178.7 C 149.7 175.29999999999998 150.79999999999998 172.5 153.2 170.2 L 170.2 153.2 C 172.6 150.79999999999998 175.29999999999998 149.7 178.7 149.7 C 182.1 149.7 184.79999999999998 150.79999999999998 187.2 153.2 L 224 190 L 260.8 153.2 C 263.2 150.79999999999998 265.90000000000003 149.7 269.3 149.7 C 272.7 149.7 275.40000000000003 150.79999999999998 277.8 153.2 L 294.8 170.2 C 297.2 172.5 298.3 175.29999999999998 298.3 178.7 C 298.3 182 297.2 184.79999999999998 294.8 187.2 L 258 224 L 294.8 260.8 C 297.1 263.1 298.2 265.9 298.2 269.2 Z"/></g></g></g></g><g transform="matrix(1,0,0,1,-46.18359375,61)"><text fill="#000000" stroke="none" font-family="Open Sans" font-size="12pt" font-style="normal" font-weight="normal" text-decoration="normal" x="74.18359375" y="12" text-anchor="middle" dominant-baseline="alphabetic">      ¿Se Aprueba       </text><text fill="#000000" stroke="none" font-family="Open Sans" font-size="12pt" font-style="normal" font-weight="normal" text-decoration="normal" x="74.18359375" y="27" text-anchor="middle" dominant-baseline="alphabetic">Solicitud de Excusa?</text></g></g></g><g transform="matrix(1,0,0,1,30,1028)"/><g transform="matrix(1,0,0,1,1255,1163)"/><g transform="matrix(1,0,0,1,1511,1185.3333740234375)"/><g id="_87B63E59-8950-487F-B0CD-F70CF875E295" bpmn2nodeid="_87B63E59-8950-487F-B0CD-F70CF875E295" transform="matrix(1,0,0,1,24,2054)"><g><path fill="none" stroke="none"/></g><g transform="matrix(1,0,0,1,0,0)"><path fill="#f2f2f2" stroke="none" id="_87B63E59-8950-487F-B0CD-F70CF875E295?shapeType=BACKGROUND" paint-order="stroke fill markers" d=" M 0 0 L 3799.333251953125 0 L 3799.333251953125 504.666748046875 L 0 504.666748046875 L 0 0 Z Z"/></g><g transform="matrix(1,0,0,1,0,0)"><path fill="none" stroke="#000000" id="_87B63E59-8950-487F-B0CD-F70CF875E295?shapeType=BORDER&amp;renderType=STROKE" paint-order="fill stroke markers" d=" M 0 0 L 3799.333251953125 0 L 3799.333251953125 504.666748046875 L 0 504.666748046875 L 0 0 Z Z" stroke-miterlimit="10" stroke-width="0.5" stroke-dasharray=""/></g><g transform="matrix(-1.8369701987210297e-16,-1,1,-1.8369701987210297e-16,0,330.6771240234375)"><text fill="#000000" stroke="none" font-family="Open Sans" font-size="12pt" font-style="normal" font-weight="normal" text-decoration="normal" x="78.34375" y="12" text-anchor="middle" dominant-baseline="alphabetic">Control de Asistencia</text></g><g id="_FC749D7B-5A71-4862-BBF7-C5C64605295F" bpmn2nodeid="_FC749D7B-5A71-4862-BBF7-C5C64605295F" transform="matrix(1,0,0,1,1944.333251953125,103)"><g><path fill="none" stroke="none"/></g><g transform="matrix(1,0,0,1,0,0)"><path fill="#ffffff" stroke="none" id="_FC749D7B-5A71-4862-BBF7-C5C64605295F?shapeType=BACKGROUND" paint-order="stroke fill markers" d=" M 2 0 L 206.666748046875 0 L 206.666748046875 0 A 2 2 0 0 1 208.666748046875 2 L 208.666748046875 102.666748046875 L 208.666748046875 102.666748046875 A 2 2 0 0 1 206.666748046875 104.666748046875 L 2 104.666748046875 L 2 104.666748046875 A 2 2 0 0 1 0 102.666748046875 L 0 2 L 0 2.0000000000000004 A 2 2 0 0 1 1.9999999999999996 0 Z"/></g><g transform="matrix(1,0,0,1,0,0)"><path fill="none" stroke="#000000" id="_FC749D7B-5A71-4862-BBF7-C5C64605295F?shapeType=BORDER&amp;renderType=STROKE" paint-order="fill stroke markers" d=" M 2 0 L 206.666748046875 0 L 206.666748046875 0 A 2 2 0 0 1 208.666748046875 2 L 208.666748046875 102.666748046875 L 208.666748046875 102.666748046875 A 2 2 0 0 1 206.666748046875 104.666748046875 L 2 104.666748046875 L 2 104.666748046875 A 2 2 0 0 1 0 102.666748046875 L 0 2 L 0 2.0000000000000004 A 2 2 0 0 1 1.9999999999999996 0 Z" stroke-miterlimit="10" stroke-width="1.5" stroke-dasharray=""/></g><g><g transform="matrix(0.06,0,0,0.06,9.4,9.4)"><g transform="matrix(1,0,0,1,0,0)"><path fill="#393f44" stroke="none" id="_FC749D7B-5A71-4862-BBF7-C5C64605295F_task__eJRz__HdxE" paint-order="stroke fill markers" d=" M 0 0 M 16 445.2101 C 16 440.86867 18.784312 431.12906000000004 22.001325 424.21728 C 35.767643 394.6402 77.282944 359.28049 129 333.08362 C 144.51625 325.22398 157.34689 319.96394 167.80739 317.17416 C 171.93153 316.07426 175.72913 314.41389999999996 176.5251 313.36265 C 178.89361 310.23449999999997 180.91404 302.90781 181.72673 294.5 L 182.5 286.5 L 178.50715 283.45457 C 166.30327 274.14645 154.2837 251.67767 148.03953 226.5 C 145.61086 216.70715 145.05603000000002 215.46246 142.98364 215.1579 C 141.70332000000002 214.96974 138.08302 212.24302 134.93852 209.09852 C 123.23314 197.39314000000002 116.89146000000001 177.37556 121.43982000000001 166.48978 C 123.00204000000001 162.75088 128.15457 159.00970999999998 131.75 159.00374 C 134.44781 158.99974 134.47062 158.60296 132.91375 138.78796 C 130.92658 113.4962 134.27903 92.26542699999999 143.13217 74.075676 C 152.23162 55.379835 167.56889 42.88208 189.04934 36.659507000000005 C 210.20334 30.531504000000005 237.79666 30.531504000000005 258.95065999999997 36.659507000000005 C 300.04166 48.562968000000005 318.95842 83.80634 314.95504999999997 141 C 314.31982999999997 150.075 313.62402 157.78816 313.4088 158.14035 C 313.19359 158.49254000000002 314.57532 159.07295000000002 316.47931 159.43014000000002 C 328.92867 161.76565000000002 330.98619 177.01772000000003 321.49638 196.62092 C 316.90319 206.10912000000002 309.35724 214.50797 304.81732 215.18517000000003 C 303.02259 215.45289000000002 302.2931 217.14618000000002 299.94277999999997 226.50000000000003 C 296.65948 239.56693 294.47402 245.30522000000002 287.94764 257.99534000000006 C 282.49071999999995 268.60596000000004 273.03466 281.10922000000005 268.10756999999995 284.2288300000001 L 264.87062 286.27832000000006 L 265.51815999999997 292.88916000000006 C 266.34490999999997 301.32961000000006 268.63948999999997 309.8706000000001 270.87735999999995 312.83742000000007 C 272.06735 314.4150200000001 275.00244999999995 315.78963000000005 280.0630699999999 317.13941000000005 C 291.06929999999994 320.0750300000001 303.61700999999994 325.27420000000006 320.99999999999994 334.10171 C 369.81470999999993 358.89104000000003 410.84810999999996 393.75797 425.03216 422.5 C 429.06985999999995 430.68183 432 440.23198 432 445.2101 L 432 448 L 224 448 L 16 448 L 16 445.2101 Z"/></g></g></g><g transform="matrix(1,0,0,1,31.373374023437492,16.346748046875007)"><g transform="matrix(0.04,0,0,0.04,63.36,69.12)"><g transform="matrix(1,0,0,1,0,0)"><path fill="none" stroke="none"/></g><g transform="matrix(1,0,0,1,0,0)"><path fill="none" stroke="none"/></g></g></g><g transform="matrix(1,0,0,1,35,29.8333740234375)"><text fill="#000000" stroke="none" font-family="Open Sans" font-size="12pt" font-style="normal" font-weight="normal" text-decoration="normal" x="78.16796875" y="12" text-anchor="middle" dominant-baseline="alphabetic">Verificar Solicitud de </text><text fill="#000000" stroke="none" font-family="Open Sans" font-size="12pt" font-style="normal" font-weight="normal" text-decoration="normal" x="78.16796875" y="27" text-anchor="middle" dominant-baseline="alphabetic">Excusa por Ausencia </text><text fill="#000000" stroke="none" font-family="Open Sans" font-size="12pt" font-style="normal" font-weight="normal" text-decoration="normal" x="78.16796875" y="42" text-anchor="middle" dominant-baseline="alphabetic">    o Llegada Tarde     </text></g></g><g id="_0C506D1A-98DD-488C-9D7B-D2D05F30400D" bpmn2nodeid="_0C506D1A-98DD-488C-9D7B-D2D05F30400D" transform="matrix(1,0,0,1,2540,104)"><g><path fill="none" stroke="none"/></g><g transform="matrix(1,0,0,1,0,0)"><path fill="#ffffff" stroke="none" id="_0C506D1A-98DD-488C-9D7B-D2D05F30400D?shapeType=BACKGROUND" paint-order="stroke fill markers" d=" M 2 0 L 152 0 L 152 0 A 2 2 0 0 1 154 2 L 154 100 L 154 100 A 2 2 0 0 1 152 102 L 2 102 L 2 102 A 2 2 0 0 1 0 100 L 0 2 L 0 2.0000000000000004 A 2 2 0 0 1 1.9999999999999996 0 Z"/></g><g transform="matrix(1,0,0,1,0,0)"><path fill="none" stroke="#000000" id="_0C506D1A-98DD-488C-9D7B-D2D05F30400D?shapeType=BORDER&amp;renderType=STROKE" paint-order="fill stroke markers" d=" M 2 0 L 152 0 L 152 0 A 2 2 0 0 1 154 2 L 154 100 L 154 100 A 2 2 0 0 1 152 102 L 2 102 L 2 102 A 2 2 0 0 1 0 100 L 0 2 L 0 2.0000000000000004 A 2 2 0 0 1 1.9999999999999996 0 Z" stroke-miterlimit="10" stroke-width="1.5" stroke-dasharray=""/></g><g><g transform="matrix(0.06,0,0,0.06,9.4,9.4)"><g transform="matrix(1,0,0,1,0,0)"><path fill="#393f44" stroke="none" id="_0C506D1A-98DD-488C-9D7B-D2D05F30400D_task__eJRz__HdxE" paint-order="stroke fill markers" d=" M 0 0 M 16 445.2101 C 16 440.86867 18.784312 431.12906000000004 22.001325 424.21728 C 35.767643 394.6402 77.282944 359.28049 129 333.08362 C 144.51625 325.22398 157.34689 319.96394 167.80739 317.17416 C 171.93153 316.07426 175.72913 314.41389999999996 176.5251 313.36265 C 178.89361 310.23449999999997 180.91404 302.90781 181.72673 294.5 L 182.5 286.5 L 178.50715 283.45457 C 166.30327 274.14645 154.2837 251.67767 148.03953 226.5 C 145.61086 216.70715 145.05603000000002 215.46246 142.98364 215.1579 C 141.70332000000002 214.96974 138.08302 212.24302 134.93852 209.09852 C 123.23314 197.39314000000002 116.89146000000001 177.37556 121.43982000000001 166.48978 C 123.00204000000001 162.75088 128.15457 159.00970999999998 131.75 159.00374 C 134.44781 158.99974 134.47062 158.60296 132.91375 138.78796 C 130.92658 113.4962 134.27903 92.26542699999999 143.13217 74.075676 C 152.23162 55.379835 167.56889 42.88208 189.04934 36.659507000000005 C 210.20334 30.531504000000005 237.79666 30.531504000000005 258.95065999999997 36.659507000000005 C 300.04166 48.562968000000005 318.95842 83.80634 314.95504999999997 141 C 314.31982999999997 150.075 313.62402 157.78816 313.4088 158.14035 C 313.19359 158.49254000000002 314.57532 159.07295000000002 316.47931 159.43014000000002 C 328.92867 161.76565000000002 330.98619 177.01772000000003 321.49638 196.62092 C 316.90319 206.10912000000002 309.35724 214.50797 304.81732 215.18517000000003 C 303.02259 215.45289000000002 302.2931 217.14618000000002 299.94277999999997 226.50000000000003 C 296.65948 239.56693 294.47402 245.30522000000002 287.94764 257.99534000000006 C 282.49071999999995 268.60596000000004 273.03466 281.10922000000005 268.10756999999995 284.2288300000001 L 264.87062 286.27832000000006 L 265.51815999999997 292.88916000000006 C 266.34490999999997 301.32961000000006 268.63948999999997 309.8706000000001 270.87735999999995 312.83742000000007 C 272.06735 314.4150200000001 275.00244999999995 315.78963000000005 280.0630699999999 317.13941000000005 C 291.06929999999994 320.0750300000001 303.61700999999994 325.27420000000006 320.99999999999994 334.10171 C 369.81470999999993 358.89104000000003 410.84810999999996 393.75797 425.03216 422.5 C 429.06985999999995 430.68183 432 440.23198 432 445.2101 L 432 448 L 224 448 L 16 448 L 16 445.2101 Z"/></g></g></g><g transform="matrix(1,0,0,1,4.039999999999992,13.680000000000007)"><g transform="matrix(0.04,0,0,0.04,63.36,69.12)"><g transform="matrix(1,0,0,1,0,0)"><path fill="none" stroke="none"/></g><g transform="matrix(1,0,0,1,0,0)"><path fill="none" stroke="none"/></g></g></g><g transform="matrix(1,0,0,1,35,21)"><text fill="#000000" stroke="none" font-family="Open Sans" font-size="12pt" font-style="normal" font-weight="normal" text-decoration="normal" x="48.84375" y="12" text-anchor="middle" dominant-baseline="alphabetic"> Revisión de  </text><text fill="#000000" stroke="none" font-family="Open Sans" font-size="12pt" font-style="normal" font-weight="normal" text-decoration="normal" x="48.84375" y="27" text-anchor="middle" dominant-baseline="alphabetic"> rechazo de   </text><text fill="#000000" stroke="none" font-family="Open Sans" font-size="12pt" font-style="normal" font-weight="normal" text-decoration="normal" x="48.84375" y="42" text-anchor="middle" dominant-baseline="alphabetic">documentos </text><text fill="#000000" stroke="none" font-family="Open Sans" font-size="12pt" font-style="normal" font-weight="normal" text-decoration="normal" x="48.84375" y="57" text-anchor="middle" dominant-baseline="alphabetic">    faltantes    </text></g></g><g id="_BA8C31BA-094A-440E-B8C9-B3B8C442D612" bpmn2nodeid="_BA8C31BA-094A-440E-B8C9-B3B8C442D612" transform="matrix(1,0,0,1,2226,127)"><g><path fill="none" stroke="none"/></g><g transform="matrix(0.125,0,0,0.125,0,0)"><g transform="matrix(1,0,0,1,0,0)"><path fill="#fef4ea" stroke="none" id="_BA8C31BA-094A-440E-B8C9-B3B8C442D612?shapeType=BACKGROUND" paint-order="stroke fill markers" d=" M 0 0 M 224.4 4.3 C 216.4 4.3 208.4 7.3 202.3 13.399999999999999 L 13.5 202.2 C 1.3000000000000007 214.39999999999998 1.3000000000000007 234.2 13.5 246.39999999999998 L 202.2 435.09999999999997 C 208.29999999999998 441.2 216.39999999999998 444.2 224.29999999999998 444.2 C 232.2 444.2 240.29999999999998 441.2 246.39999999999998 435.09999999999997 L 435.09999999999997 246.39999999999998 C 447.29999999999995 234.2 447.29999999999995 214.39999999999998 435.09999999999997 202.2 L 246.5 13.4 C 240.4 7.3 232.4 4.3 224.4 4.3 L 224.4 4.3 Z"/></g><g><g transform="matrix(1,0,0,1,0,0)"><g transform="matrix(1,0,0,1,0,0)"><path fill="#ec7a08" stroke="none" id="_BA8C31BA-094A-440E-B8C9-B3B8C442D612?shapeType=BORDER&amp;renderType=FILL" paint-order="stroke fill markers" d=" M 0 0 M 20.8 212.7 L 213.3 20.2 C 219.60000000000002 13.899999999999999 229.70000000000002 13.899999999999999 235.9 20.2 L 428.4 212.7 C 434.7 219 434.7 229.1 428.4 235.29999999999998 L 235.9 427.8 C 229.6 434.1 219.5 434.1 213.3 427.8 L 20.8 235.3 C 14.5 229.1 14.5 218.9 20.8 212.7 L 20.8 212.7 Z M 0 0 M 0 224 C 0 232.1 3.1 240.3 9.3 246.5 L 201.5 438.7 C 213.9 451.09999999999997 234.1 451.09999999999997 246.5 438.7 L 438.7 246.5 C 444.9 240.3 448 232.1 448 224 C 448 215.9 444.9 207.7 438.7 201.5 L 246.5 9.3 C 234.1 -3.0999999999999996 213.9 -3.0999999999999996 201.5 9.3 L 9.3 201.5 C 3.1 207.7 0 215.9 0 224 L 0 224 Z"/></g></g></g><g><g transform="matrix(1,0,0,1,0,0)"><g transform="matrix(1,0,0,1,0,0)"><path fill="#ec7a08" stroke="none" id="_BA8C31BA-094A-440E-B8C9-B3B8C442D612_exclusive" paint-order="stroke fill markers" d=" M 0 0 M 298.2 269.2 C 298.2 272.59999999999997 297.09999999999997 275.3 294.7 277.7 L 277.7 294.7 C 275.3 297.09999999999997 272.59999999999997 298.2 269.2 298.2 C 265.8 298.2 263.09999999999997 297.09999999999997 260.7 294.7 L 224 258 L 187.2 294.8 C 184.79999999999998 297.2 182.1 298.3 178.7 298.3 C 175.29999999999998 298.3 172.6 297.2 170.2 294.8 L 153.2 277.8 C 150.79999999999998 275.40000000000003 149.7 272.7 149.7 269.3 C 149.7 265.90000000000003 150.79999999999998 263.2 153.2 260.8 L 190 224 L 153.2 187.2 C 150.79999999999998 184.79999999999998 149.7 182 149.7 178.7 C 149.7 175.29999999999998 150.79999999999998 172.5 153.2 170.2 L 170.2 153.2 C 172.6 150.79999999999998 175.29999999999998 149.7 178.7 149.7 C 182.1 149.7 184.79999999999998 150.79999999999998 187.2 153.2 L 224 190 L 260.8 153.2 C 263.2 150.79999999999998 265.90000000000003 149.7 269.3 149.7 C 272.7 149.7 275.40000000000003 150.79999999999998 277.8 153.2 L 294.8 170.2 C 297.2 172.5 298.3 175.29999999999998 298.3 178.7 C 298.3 182 297.2 184.79999999999998 294.8 187.2 L 258 224 L 294.8 260.8 C 297.1 263.1 298.2 265.9 298.2 269.2 Z"/></g></g></g></g><g transform="matrix(1,0,0,1,28,61)"/></g></g><g transform="matrix(1,0,0,1,24,2054)"/><g transform="matrix(1,0,0,1,1968.333251953125,2157)"/><g transform="matrix(1,0,0,1,2564,2158)"/><g transform="matrix(1,0,0,1,2250,2181)"/><g id="_3421C7E7-3EED-43DF-A99E-8004A476F8C7" bpmn2nodeid="_3421C7E7-3EED-43DF-A99E-8004A476F8C7" transform="matrix(1,0,0,1,24,515)"><g><path fill="none" stroke="none"/></g><g transform="matrix(1,0,0,1,0,0)"><path fill="#f2f2f2" stroke="none" id="_3421C7E7-3EED-43DF-A99E-8004A476F8C7?shapeType=BACKGROUND" paint-order="stroke fill markers" d=" M 0 0 L 3800.4443359375 0 L 3800.4443359375 504.66668701171875 L 0 504.66668701171875 L 0 0 Z Z"/></g><g transform="matrix(1,0,0,1,0,0)"><path fill="none" stroke="#000000" id="_3421C7E7-3EED-43DF-A99E-8004A476F8C7?shapeType=BORDER&amp;renderType=STROKE" paint-order="fill stroke markers" d=" M 0 0 L 3800.4443359375 0 L 3800.4443359375 504.66668701171875 L 0 504.66668701171875 L 0 0 Z Z" stroke-miterlimit="10" stroke-width="0.5" stroke-dasharray=""/></g><g transform="matrix(-1.8369701987210297e-16,-1,1,-1.8369701987210297e-16,0,306.3372497558594)"><text fill="#000000" stroke="none" font-family="Open Sans" font-size="12pt" font-style="normal" font-weight="normal" text-decoration="normal" x="54.00390625" y="12" text-anchor="middle" dominant-baseline="alphabetic">Jefe Inmediato</text></g><g id="_B8825C56-2101-42C5-8AF6-6B716335A46A" bpmn2nodeid="_B8825C56-2101-42C5-8AF6-6B716335A46A" transform="matrix(1,0,0,1,898,110)"><g><path fill="none" stroke="none"/></g><g transform="matrix(1,0,0,1,0,0)"><path fill="#ffffff" stroke="none" id="_B8825C56-2101-42C5-8AF6-6B716335A46A?shapeType=BACKGROUND" paint-order="stroke fill markers" d=" M 2 0 L 152 0 L 152 0 A 2 2 0 0 1 154 2 L 154 100 L 154 100 A 2 2 0 0 1 152 102 L 2 102 L 2 102 A 2 2 0 0 1 0 100 L 0 2 L 0 2.0000000000000004 A 2 2 0 0 1 1.9999999999999996 0 Z"/></g><g transform="matrix(1,0,0,1,0,0)"><path fill="none" stroke="#000000" id="_B8825C56-2101-42C5-8AF6-6B716335A46A?shapeType=BORDER&amp;renderType=STROKE" paint-order="fill stroke markers" d=" M 2 0 L 152 0 L 152 0 A 2 2 0 0 1 154 2 L 154 100 L 154 100 A 2 2 0 0 1 152 102 L 2 102 L 2 102 A 2 2 0 0 1 0 100 L 0 2 L 0 2.0000000000000004 A 2 2 0 0 1 1.9999999999999996 0 Z" stroke-miterlimit="10" stroke-width="1.5" stroke-dasharray=""/></g><g><g transform="matrix(0.06,0,0,0.06,9.4,9.4)"><g transform="matrix(1,0,0,1,0,0)"><path fill="#393f44" stroke="none" id="_B8825C56-2101-42C5-8AF6-6B716335A46A_task__eJRz__HdxE" paint-order="stroke fill markers" d=" M 0 0 M 16 445.2101 C 16 440.86867 18.784312 431.12906000000004 22.001325 424.21728 C 35.767643 394.6402 77.282944 359.28049 129 333.08362 C 144.51625 325.22398 157.34689 319.96394 167.80739 317.17416 C 171.93153 316.07426 175.72913 314.41389999999996 176.5251 313.36265 C 178.89361 310.23449999999997 180.91404 302.90781 181.72673 294.5 L 182.5 286.5 L 178.50715 283.45457 C 166.30327 274.14645 154.2837 251.67767 148.03953 226.5 C 145.61086 216.70715 145.05603000000002 215.46246 142.98364 215.1579 C 141.70332000000002 214.96974 138.08302 212.24302 134.93852 209.09852 C 123.23314 197.39314000000002 116.89146000000001 177.37556 121.43982000000001 166.48978 C 123.00204000000001 162.75088 128.15457 159.00970999999998 131.75 159.00374 C 134.44781 158.99974 134.47062 158.60296 132.91375 138.78796 C 130.92658 113.4962 134.27903 92.26542699999999 143.13217 74.075676 C 152.23162 55.379835 167.56889 42.88208 189.04934 36.659507000000005 C 210.20334 30.531504000000005 237.79666 30.531504000000005 258.95065999999997 36.659507000000005 C 300.04166 48.562968000000005 318.95842 83.80634 314.95504999999997 141 C 314.31982999999997 150.075 313.62402 157.78816 313.4088 158.14035 C 313.19359 158.49254000000002 314.57532 159.07295000000002 316.47931 159.43014000000002 C 328.92867 161.76565000000002 330.98619 177.01772000000003 321.49638 196.62092 C 316.90319 206.10912000000002 309.35724 214.50797 304.81732 215.18517000000003 C 303.02259 215.45289000000002 302.2931 217.14618000000002 299.94277999999997 226.50000000000003 C 296.65948 239.56693 294.47402 245.30522000000002 287.94764 257.99534000000006 C 282.49071999999995 268.60596000000004 273.03466 281.10922000000005 268.10756999999995 284.2288300000001 L 264.87062 286.27832000000006 L 265.51815999999997 292.88916000000006 C 266.34490999999997 301.32961000000006 268.63948999999997 309.8706000000001 270.87735999999995 312.83742000000007 C 272.06735 314.4150200000001 275.00244999999995 315.78963000000005 280.0630699999999 317.13941000000005 C 291.06929999999994 320.0750300000001 303.61700999999994 325.27420000000006 320.99999999999994 334.10171 C 369.81470999999993 358.89104000000003 410.84810999999996 393.75797 425.03216 422.5 C 429.06985999999995 430.68183 432 440.23198 432 445.2101 L 432 448 L 224 448 L 16 448 L 16 445.2101 Z"/></g></g></g><g transform="matrix(1,0,0,1,4.039999999999992,13.680000000000007)"><g transform="matrix(0.04,0,0,0.04,63.36,69.12)"><g transform="matrix(1,0,0,1,0,0)"><path fill="none" stroke="none"/></g><g transform="matrix(1,0,0,1,0,0)"><path fill="none" stroke="none"/></g></g></g><g transform="matrix(1,0,0,1,35,21)"><text fill="#000000" stroke="none" font-family="Open Sans" font-size="12pt" font-style="normal" font-weight="normal" text-decoration="normal" x="56.45703125" y="12" text-anchor="middle" dominant-baseline="alphabetic">Revisar Excusa </text><text fill="#000000" stroke="none" font-family="Open Sans" font-size="12pt" font-style="normal" font-weight="normal" text-decoration="normal" x="56.45703125" y="27" text-anchor="middle" dominant-baseline="alphabetic"> por Ausencia   </text><text fill="#000000" stroke="none" font-family="Open Sans" font-size="12pt" font-style="normal" font-weight="normal" text-decoration="normal" x="56.45703125" y="42" text-anchor="middle" dominant-baseline="alphabetic">    o Llegada      </text><text fill="#000000" stroke="none" font-family="Open Sans" font-size="12pt" font-style="normal" font-weight="normal" text-decoration="normal" x="56.45703125" y="57" text-anchor="middle" dominant-baseline="alphabetic">        Tarde         </text></g></g><g id="_4B32050B-6B19-4EB9-AA4F-D818664E7D1D" bpmn2nodeid="_4B32050B-6B19-4EB9-AA4F-D818664E7D1D" transform="matrix(1,0,0,1,1124,133)"><g><path fill="none" stroke="none"/></g><g transform="matrix(0.125,0,0,0.125,0,0)"><g transform="matrix(1,0,0,1,0,0)"><path fill="#fef4ea" stroke="none" id="_4B32050B-6B19-4EB9-AA4F-D818664E7D1D?shapeType=BACKGROUND" paint-order="stroke fill markers" d=" M 0 0 M 224.4 4.3 C 216.4 4.3 208.4 7.3 202.3 13.399999999999999 L 13.5 202.2 C 1.3000000000000007 214.39999999999998 1.3000000000000007 234.2 13.5 246.39999999999998 L 202.2 435.09999999999997 C 208.29999999999998 441.2 216.39999999999998 444.2 224.29999999999998 444.2 C 232.2 444.2 240.29999999999998 441.2 246.39999999999998 435.09999999999997 L 435.09999999999997 246.39999999999998 C 447.29999999999995 234.2 447.29999999999995 214.39999999999998 435.09999999999997 202.2 L 246.5 13.4 C 240.4 7.3 232.4 4.3 224.4 4.3 L 224.4 4.3 Z"/></g><g><g transform="matrix(1,0,0,1,0,0)"><g transform="matrix(1,0,0,1,0,0)"><path fill="#ec7a08" stroke="none" id="_4B32050B-6B19-4EB9-AA4F-D818664E7D1D?shapeType=BORDER&amp;renderType=FILL" paint-order="stroke fill markers" d=" M 0 0 M 20.8 212.7 L 213.3 20.2 C 219.60000000000002 13.899999999999999 229.70000000000002 13.899999999999999 235.9 20.2 L 428.4 212.7 C 434.7 219 434.7 229.1 428.4 235.29999999999998 L 235.9 427.8 C 229.6 434.1 219.5 434.1 213.3 427.8 L 20.8 235.3 C 14.5 229.1 14.5 218.9 20.8 212.7 L 20.8 212.7 Z M 0 0 M 0 224 C 0 232.1 3.1 240.3 9.3 246.5 L 201.5 438.7 C 213.9 451.09999999999997 234.1 451.09999999999997 246.5 438.7 L 438.7 246.5 C 444.9 240.3 448 232.1 448 224 C 448 215.9 444.9 207.7 438.7 201.5 L 246.5 9.3 C 234.1 -3.0999999999999996 213.9 -3.0999999999999996 201.5 9.3 L 9.3 201.5 C 3.1 207.7 0 215.9 0 224 L 0 224 Z"/></g></g></g><g><g transform="matrix(1,0,0,1,0,0)"><g transform="matrix(1,0,0,1,0,0)"><path fill="#ec7a08" stroke="none" id="_4B32050B-6B19-4EB9-AA4F-D818664E7D1D_exclusive" paint-order="stroke fill markers" d=" M 0 0 M 298.2 269.2 C 298.2 272.59999999999997 297.09999999999997 275.3 294.7 277.7 L 277.7 294.7 C 275.3 297.09999999999997 272.59999999999997 298.2 269.2 298.2 C 265.8 298.2 263.09999999999997 297.09999999999997 260.7 294.7 L 224 258 L 187.2 294.8 C 184.79999999999998 297.2 182.1 298.3 178.7 298.3 C 175.29999999999998 298.3 172.6 297.2 170.2 294.8 L 153.2 277.8 C 150.79999999999998 275.40000000000003 149.7 272.7 149.7 269.3 C 149.7 265.90000000000003 150.79999999999998 263.2 153.2 260.8 L 190 224 L 153.2 187.2 C 150.79999999999998 184.79999999999998 149.7 182 149.7 178.7 C 149.7 175.29999999999998 150.79999999999998 172.5 153.2 170.2 L 170.2 153.2 C 172.6 150.79999999999998 175.29999999999998 149.7 178.7 149.7 C 182.1 149.7 184.79999999999998 150.79999999999998 187.2 153.2 L 224 190 L 260.8 153.2 C 263.2 150.79999999999998 265.90000000000003 149.7 269.3 149.7 C 272.7 149.7 275.40000000000003 150.79999999999998 277.8 153.2 L 294.8 170.2 C 297.2 172.5 298.3 175.29999999999998 298.3 178.7 C 298.3 182 297.2 184.79999999999998 294.8 187.2 L 258 224 L 294.8 260.8 C 297.1 263.1 298.2 265.9 298.2 269.2 Z"/></g></g></g></g><g transform="matrix(1,0,0,1,-46.18359375,61)"><text fill="#000000" stroke="none" font-family="Open Sans" font-size="12pt" font-style="normal" font-weight="normal" text-decoration="normal" x="74.18359375" y="12" text-anchor="middle" dominant-baseline="alphabetic">      ¿Se Aprueba       </text><text fill="#000000" stroke="none" font-family="Open Sans" font-size="12pt" font-style="normal" font-weight="normal" text-decoration="normal" x="74.18359375" y="27" text-anchor="middle" dominant-baseline="alphabetic">Solicitud de Excusa?</text></g></g></g><g transform="matrix(1,0,0,1,24,515)"/><g transform="matrix(1,0,0,1,922,625)"/><g transform="matrix(1,0,0,1,1148,648)"/><g id="_21276CEB-874C-4B6A-BE0E-BC4B1B0BC38B" bpmn2nodeid="_21276CEB-874C-4B6A-BE0E-BC4B1B0BC38B" transform="matrix(1,0,0,1,24,1541)"><g><path fill="none" stroke="none"/></g><g transform="matrix(1,0,0,1,0,0)"><path fill="#f2f2f2" stroke="none" id="_21276CEB-874C-4B6A-BE0E-BC4B1B0BC38B?shapeType=BACKGROUND" paint-order="stroke fill markers" d=" M 0 0 L 3801.5556640625 0 L 3801.5556640625 504.6666259765625 L 0 504.6666259765625 L 0 0 Z Z"/></g><g transform="matrix(1,0,0,1,0,0)"><path fill="none" stroke="#000000" id="_21276CEB-874C-4B6A-BE0E-BC4B1B0BC38B?shapeType=BORDER&amp;renderType=STROKE" paint-order="fill stroke markers" d=" M 0 0 L 3801.5556640625 0 L 3801.5556640625 504.6666259765625 L 0 504.6666259765625 L 0 0 Z Z" stroke-miterlimit="10" stroke-width="0.5" stroke-dasharray=""/></g><g transform="matrix(-1.8369701987210297e-16,-1,1,-1.8369701987210297e-16,0,289.62628173828125)"><text fill="#000000" stroke="none" font-family="Open Sans" font-size="12pt" font-style="normal" font-weight="normal" text-decoration="normal" x="37.29296875" y="12" text-anchor="middle" dominant-baseline="alphabetic">Secretaría</text></g><g id="_FDD1A6F0-1A0F-4220-9F0B-CACE58BE0FD6" bpmn2nodeid="_FDD1A6F0-1A0F-4220-9F0B-CACE58BE0FD6" transform="matrix(1,0,0,1,1601.33349609375,101.3333740234375)"><g><path fill="none" stroke="none"/></g><g transform="matrix(1,0,0,1,0,0)"><path fill="#ffffff" stroke="none" id="_FDD1A6F0-1A0F-4220-9F0B-CACE58BE0FD6?shapeType=BACKGROUND" paint-order="stroke fill markers" d=" M 2 0 L 158.66650390625 0 L 158.66650390625 0 A 2 2 0 0 1 160.66650390625 2 L 160.66650390625 100 L 160.66650390625 100 A 2 2 0 0 1 158.66650390625 102 L 2 102 L 2 102 A 2 2 0 0 1 0 100 L 0 2 L 0 2.0000000000000004 A 2 2 0 0 1 1.9999999999999996 0 Z"/></g><g transform="matrix(1,0,0,1,0,0)"><path fill="none" stroke="#000000" id="_FDD1A6F0-1A0F-4220-9F0B-CACE58BE0FD6?shapeType=BORDER&amp;renderType=STROKE" paint-order="fill stroke markers" d=" M 2 0 L 158.66650390625 0 L 158.66650390625 0 A 2 2 0 0 1 160.66650390625 2 L 160.66650390625 100 L 160.66650390625 100 A 2 2 0 0 1 158.66650390625 102 L 2 102 L 2 102 A 2 2 0 0 1 0 100 L 0 2 L 0 2.0000000000000004 A 2 2 0 0 1 1.9999999999999996 0 Z" stroke-miterlimit="10" stroke-width="1.5" stroke-dasharray=""/></g><g><g transform="matrix(0.06,0,0,0.06,9.4,9.4)"><g transform="matrix(1,0,0,1,0,0)"><path fill="#393f44" stroke="none" id="_FDD1A6F0-1A0F-4220-9F0B-CACE58BE0FD6_task__eJRz__HdxE" paint-order="stroke fill markers" d=" M 0 0 M 16 445.2101 C 16 440.86867 18.784312 431.12906000000004 22.001325 424.21728 C 35.767643 394.6402 77.282944 359.28049 129 333.08362 C 144.51625 325.22398 157.34689 319.96394 167.80739 317.17416 C 171.93153 316.07426 175.72913 314.41389999999996 176.5251 313.36265 C 178.89361 310.23449999999997 180.91404 302.90781 181.72673 294.5 L 182.5 286.5 L 178.50715 283.45457 C 166.30327 274.14645 154.2837 251.67767 148.03953 226.5 C 145.61086 216.70715 145.05603000000002 215.46246 142.98364 215.1579 C 141.70332000000002 214.96974 138.08302 212.24302 134.93852 209.09852 C 123.23314 197.39314000000002 116.89146000000001 177.37556 121.43982000000001 166.48978 C 123.00204000000001 162.75088 128.15457 159.00970999999998 131.75 159.00374 C 134.44781 158.99974 134.47062 158.60296 132.91375 138.78796 C 130.92658 113.4962 134.27903 92.26542699999999 143.13217 74.075676 C 152.23162 55.379835 167.56889 42.88208 189.04934 36.659507000000005 C 210.20334 30.531504000000005 237.79666 30.531504000000005 258.95065999999997 36.659507000000005 C 300.04166 48.562968000000005 318.95842 83.80634 314.95504999999997 141 C 314.31982999999997 150.075 313.62402 157.78816 313.4088 158.14035 C 313.19359 158.49254000000002 314.57532 159.07295000000002 316.47931 159.43014000000002 C 328.92867 161.76565000000002 330.98619 177.01772000000003 321.49638 196.62092 C 316.90319 206.10912000000002 309.35724 214.50797 304.81732 215.18517000000003 C 303.02259 215.45289000000002 302.2931 217.14618000000002 299.94277999999997 226.50000000000003 C 296.65948 239.56693 294.47402 245.30522000000002 287.94764 257.99534000000006 C 282.49071999999995 268.60596000000004 273.03466 281.10922000000005 268.10756999999995 284.2288300000001 L 264.87062 286.27832000000006 L 265.51815999999997 292.88916000000006 C 266.34490999999997 301.32961000000006 268.63948999999997 309.8706000000001 270.87735999999995 312.83742000000007 C 272.06735 314.4150200000001 275.00244999999995 315.78963000000005 280.0630699999999 317.13941000000005 C 291.06929999999994 320.0750300000001 303.61700999999994 325.27420000000006 320.99999999999994 334.10171 C 369.81470999999993 358.89104000000003 410.84810999999996 393.75797 425.03216 422.5 C 429.06985999999995 430.68183 432 440.23198 432 445.2101 L 432 448 L 224 448 L 16 448 L 16 445.2101 Z"/></g></g></g><g transform="matrix(1,0,0,1,7.373251953124992,13.680000000000007)"><g transform="matrix(0.04,0,0,0.04,63.36,69.12)"><g transform="matrix(1,0,0,1,0,0)"><path fill="none" stroke="none"/></g><g transform="matrix(1,0,0,1,0,0)"><path fill="none" stroke="none"/></g></g></g><g transform="matrix(1,0,0,1,35,28.5)"><text fill="#000000" stroke="none" font-family="Open Sans" font-size="12pt" font-style="normal" font-weight="normal" text-decoration="normal" x="57.53515625" y="12" text-anchor="middle" dominant-baseline="alphabetic">Revisar Excusa  </text><text fill="#000000" stroke="none" font-family="Open Sans" font-size="12pt" font-style="normal" font-weight="normal" text-decoration="normal" x="57.53515625" y="27" text-anchor="middle" dominant-baseline="alphabetic">por Ausencia o </text><text fill="#000000" stroke="none" font-family="Open Sans" font-size="12pt" font-style="normal" font-weight="normal" text-decoration="normal" x="57.53515625" y="42" text-anchor="middle" dominant-baseline="alphabetic"> Llegada Tarde  </text></g></g><g id="_2F838C2B-10BD-4981-BFF4-5232E66A6F84" bpmn2nodeid="_2F838C2B-10BD-4981-BFF4-5232E66A6F84" transform="matrix(1,0,0,1,1842,124.3333740234375)"><g><path fill="none" stroke="none"/></g><g transform="matrix(0.125,0,0,0.125,0,0)"><g transform="matrix(1,0,0,1,0,0)"><path fill="#fef4ea" stroke="none" id="_2F838C2B-10BD-4981-BFF4-5232E66A6F84?shapeType=BACKGROUND" paint-order="stroke fill markers" d=" M 0 0 M 224.4 4.3 C 216.4 4.3 208.4 7.3 202.3 13.399999999999999 L 13.5 202.2 C 1.3000000000000007 214.39999999999998 1.3000000000000007 234.2 13.5 246.39999999999998 L 202.2 435.09999999999997 C 208.29999999999998 441.2 216.39999999999998 444.2 224.29999999999998 444.2 C 232.2 444.2 240.29999999999998 441.2 246.39999999999998 435.09999999999997 L 435.09999999999997 246.39999999999998 C 447.29999999999995 234.2 447.29999999999995 214.39999999999998 435.09999999999997 202.2 L 246.5 13.4 C 240.4 7.3 232.4 4.3 224.4 4.3 L 224.4 4.3 Z"/></g><g><g transform="matrix(1,0,0,1,0,0)"><g transform="matrix(1,0,0,1,0,0)"><path fill="#ec7a08" stroke="none" id="_2F838C2B-10BD-4981-BFF4-5232E66A6F84?shapeType=BORDER&amp;renderType=FILL" paint-order="stroke fill markers" d=" M 0 0 M 20.8 212.7 L 213.3 20.2 C 219.60000000000002 13.899999999999999 229.70000000000002 13.899999999999999 235.9 20.2 L 428.4 212.7 C 434.7 219 434.7 229.1 428.4 235.29999999999998 L 235.9 427.8 C 229.6 434.1 219.5 434.1 213.3 427.8 L 20.8 235.3 C 14.5 229.1 14.5 218.9 20.8 212.7 L 20.8 212.7 Z M 0 0 M 0 224 C 0 232.1 3.1 240.3 9.3 246.5 L 201.5 438.7 C 213.9 451.09999999999997 234.1 451.09999999999997 246.5 438.7 L 438.7 246.5 C 444.9 240.3 448 232.1 448 224 C 448 215.9 444.9 207.7 438.7 201.5 L 246.5 9.3 C 234.1 -3.0999999999999996 213.9 -3.0999999999999996 201.5 9.3 L 9.3 201.5 C 3.1 207.7 0 215.9 0 224 L 0 224 Z"/></g></g></g><g><g transform="matrix(1,0,0,1,0,0)"><g transform="matrix(1,0,0,1,0,0)"><path fill="#ec7a08" stroke="none" id="_2F838C2B-10BD-4981-BFF4-5232E66A6F84_exclusive" paint-order="stroke fill markers" d=" M 0 0 M 298.2 269.2 C 298.2 272.59999999999997 297.09999999999997 275.3 294.7 277.7 L 277.7 294.7 C 275.3 297.09999999999997 272.59999999999997 298.2 269.2 298.2 C 265.8 298.2 263.09999999999997 297.09999999999997 260.7 294.7 L 224 258 L 187.2 294.8 C 184.79999999999998 297.2 182.1 298.3 178.7 298.3 C 175.29999999999998 298.3 172.6 297.2 170.2 294.8 L 153.2 277.8 C 150.79999999999998 275.40000000000003 149.7 272.7 149.7 269.3 C 149.7 265.90000000000003 150.79999999999998 263.2 153.2 260.8 L 190 224 L 153.2 187.2 C 150.79999999999998 184.79999999999998 149.7 182 149.7 178.7 C 149.7 175.29999999999998 150.79999999999998 172.5 153.2 170.2 L 170.2 153.2 C 172.6 150.79999999999998 175.29999999999998 149.7 178.7 149.7 C 182.1 149.7 184.79999999999998 150.79999999999998 187.2 153.2 L 224 190 L 260.8 153.2 C 263.2 150.79999999999998 265.90000000000003 149.7 269.3 149.7 C 272.7 149.7 275.40000000000003 150.79999999999998 277.8 153.2 L 294.8 170.2 C 297.2 172.5 298.3 175.29999999999998 298.3 178.7 C 298.3 182 297.2 184.79999999999998 294.8 187.2 L 258 224 L 294.8 260.8 C 297.1 263.1 298.2 265.9 298.2 269.2 Z"/></g></g></g></g><g transform="matrix(1,0,0,1,28,61)"/></g></g><g transform="matrix(1,0,0,1,24,1541)"/><g transform="matrix(1,0,0,1,1625.33349609375,1642.3333740234375)"/><g transform="matrix(1,0,0,1,1866,1665.3333740234375)"/><g id="_32AA40AC-D83A-43E2-8057-568E4F4DD4AB" bpmn2nodeid="_32AA40AC-D83A-43E2-8057-568E4F4DD4AB" transform="matrix(1,0,0,1,24,2567)"><g><path fill="none" stroke="none"/></g><g transform="matrix(1,0,0,1,0,0)"><path fill="#f2f2f2" stroke="none" id="_32AA40AC-D83A-43E2-8057-568E4F4DD4AB?shapeType=BACKGROUND" paint-order="stroke fill markers" d=" M 0 0 L 3796 0 L 3796 486.888916015625 L 0 486.888916015625 L 0 0 Z Z"/></g><g transform="matrix(1,0,0,1,0,0)"><path fill="none" stroke="#000000" id="_32AA40AC-D83A-43E2-8057-568E4F4DD4AB?shapeType=BORDER&amp;renderType=STROKE" paint-order="fill stroke markers" d=" M 0 0 L 3796 0 L 3796 486.888916015625 L 0 486.888916015625 L 0 0 Z Z" stroke-miterlimit="10" stroke-width="0.5" stroke-dasharray=""/></g><g transform="matrix(-1.8369701987210297e-16,-1,1,-1.8369701987210297e-16,0,324.1124267578125)"><text fill="#000000" stroke="none" font-family="Open Sans" font-size="12pt" font-style="normal" font-weight="normal" text-decoration="normal" x="80.66796875" y="12" text-anchor="middle" dominant-baseline="alphabetic">Encargado de Archivo</text></g><g id="_77962983-2841-4FE9-A743-58E1033BDC94" bpmn2nodeid="_77962983-2841-4FE9-A743-58E1033BDC94" transform="matrix(1,0,0,1,2975,130)"><g><path fill="none" stroke="none"/></g><g transform="matrix(0.125,0,0,0.125,0,0)"><g transform="matrix(1,0,0,1,0,0)"><path fill="#fce7e7" stroke="none" id="_77962983-2841-4FE9-A743-58E1033BDC94?shapeType=BACKGROUND" paint-order="stroke fill markers" d=" M 0 0 M 444 224 C 444 263.9 434.2 300.8 414.4 334.5 C 394.7 368.2 368 394.9 334.4 414.5 C 300.79999999999995 434.1 263.9 444 224 444 C 184.10000000000002 444 147.2 434.2 113.5 414.4 C 79.8 394.7 53.1 368 33.5 334.4 C 13.899999999999999 300.79999999999995 4 263.9 4 224 C 4 184.10000000000002 13.8 147.2 33.6 113.5 C 53.400000000000006 79.80000000000001 80.1 53.1 113.6 33.5 C 147.1 13.899999999999999 184.1 4 224 4 C 263.9 4 300.8 13.8 334.5 33.6 C 368.2 53.400000000000006 394.9 80.1 414.5 113.6 C 434.1 147.1 444 184.1 444 224 Z"/></g><g><g transform="matrix(1,0,0,1,0,0)"><g transform="matrix(1,0,0,1,0,0)"><path fill="#a30000" stroke="none" id="_77962983-2841-4FE9-A743-58E1033BDC94?shapeType=BORDER&amp;renderType=FILL" paint-order="stroke fill markers" d=" M 0 0 M 224 0 C 100.3 0 0 100.3 0 224 C 0 347.7 100.3 448 224 448 C 347.7 448 448 347.7 448 224 C 448 100.30000000000001 347.7 0 224 0 Z M 0 0 M 224 400 C 126.8 400 48 321.2 48 224 C 48 126.80000000000001 126.8 48 224 48 C 321.2 48 400 126.8 400 224 C 400 321.2 321.2 400 224 400 Z"/></g></g></g></g><g transform="matrix(1,0,0,1,-44.828125,61)"><text fill="#000000" stroke="none" font-family="Open Sans" font-size="12pt" font-style="normal" font-weight="normal" text-decoration="normal" x="72.828125" y="12" text-anchor="middle" dominant-baseline="alphabetic">Solicitud de Excusa </text><text fill="#000000" stroke="none" font-family="Open Sans" font-size="12pt" font-style="normal" font-weight="normal" text-decoration="normal" x="72.828125" y="27" text-anchor="middle" dominant-baseline="alphabetic"> por Llegada Tard... </text></g></g><g id="_A755B8C3-780C-4FA5-9092-B51D9F036188" bpmn2nodeid="_A755B8C3-780C-4FA5-9092-B51D9F036188" transform="matrix(1,0,0,1,2177,107)"><g><path fill="none" stroke="none"/></g><g transform="matrix(1,0,0,1,0,0)"><path fill="#ffffff" stroke="none" id="_A755B8C3-780C-4FA5-9092-B51D9F036188?shapeType=BACKGROUND" paint-order="stroke fill markers" d=" M 2 0 L 152 0 L 152 0 A 2 2 0 0 1 154 2 L 154 100 L 154 100 A 2 2 0 0 1 152 102 L 2 102 L 2 102 A 2 2 0 0 1 0 100 L 0 2 L 0 2.0000000000000004 A 2 2 0 0 1 1.9999999999999996 0 Z"/></g><g transform="matrix(1,0,0,1,0,0)"><path fill="none" stroke="#000000" id="_A755B8C3-780C-4FA5-9092-B51D9F036188?shapeType=BORDER&amp;renderType=STROKE" paint-order="fill stroke markers" d=" M 2 0 L 152 0 L 152 0 A 2 2 0 0 1 154 2 L 154 100 L 154 100 A 2 2 0 0 1 152 102 L 2 102 L 2 102 A 2 2 0 0 1 0 100 L 0 2 L 0 2.0000000000000004 A 2 2 0 0 1 1.9999999999999996 0 Z" stroke-miterlimit="10" stroke-width="1.5" stroke-dasharray=""/></g><g><g transform="matrix(0.06,0,0,0.06,9.4,9.4)"><g transform="matrix(1,0,0,1,0,0)"><path fill="#393f44" stroke="none" id="_A755B8C3-780C-4FA5-9092-B51D9F036188_task__eJRz__HdxE" paint-order="stroke fill markers" d=" M 0 0 M 16 445.2101 C 16 440.86867 18.784312 431.12906000000004 22.001325 424.21728 C 35.767643 394.6402 77.282944 359.28049 129 333.08362 C 144.51625 325.22398 157.34689 319.96394 167.80739 317.17416 C 171.93153 316.07426 175.72913 314.41389999999996 176.5251 313.36265 C 178.89361 310.23449999999997 180.91404 302.90781 181.72673 294.5 L 182.5 286.5 L 178.50715 283.45457 C 166.30327 274.14645 154.2837 251.67767 148.03953 226.5 C 145.61086 216.70715 145.05603000000002 215.46246 142.98364 215.1579 C 141.70332000000002 214.96974 138.08302 212.24302 134.93852 209.09852 C 123.23314 197.39314000000002 116.89146000000001 177.37556 121.43982000000001 166.48978 C 123.00204000000001 162.75088 128.15457 159.00970999999998 131.75 159.00374 C 134.44781 158.99974 134.47062 158.60296 132.91375 138.78796 C 130.92658 113.4962 134.27903 92.26542699999999 143.13217 74.075676 C 152.23162 55.379835 167.56889 42.88208 189.04934 36.659507000000005 C 210.20334 30.531504000000005 237.79666 30.531504000000005 258.95065999999997 36.659507000000005 C 300.04166 48.562968000000005 318.95842 83.80634 314.95504999999997 141 C 314.31982999999997 150.075 313.62402 157.78816 313.4088 158.14035 C 313.19359 158.49254000000002 314.57532 159.07295000000002 316.47931 159.43014000000002 C 328.92867 161.76565000000002 330.98619 177.01772000000003 321.49638 196.62092 C 316.90319 206.10912000000002 309.35724 214.50797 304.81732 215.18517000000003 C 303.02259 215.45289000000002 302.2931 217.14618000000002 299.94277999999997 226.50000000000003 C 296.65948 239.56693 294.47402 245.30522000000002 287.94764 257.99534000000006 C 282.49071999999995 268.60596000000004 273.03466 281.10922000000005 268.10756999999995 284.2288300000001 L 264.87062 286.27832000000006 L 265.51815999999997 292.88916000000006 C 266.34490999999997 301.32961000000006 268.63948999999997 309.8706000000001 270.87735999999995 312.83742000000007 C 272.06735 314.4150200000001 275.00244999999995 315.78963000000005 280.0630699999999 317.13941000000005 C 291.06929999999994 320.0750300000001 303.61700999999994 325.27420000000006 320.99999999999994 334.10171 C 369.81470999999993 358.89104000000003 410.84810999999996 393.75797 425.03216 422.5 C 429.06985999999995 430.68183 432 440.23198 432 445.2101 L 432 448 L 224 448 L 16 448 L 16 445.2101 Z"/></g></g></g><g transform="matrix(1,0,0,1,4.039999999999992,13.680000000000007)"><g transform="matrix(0.04,0,0,0.04,63.36,69.12)"><g transform="matrix(1,0,0,1,0,0)"><path fill="none" stroke="none"/></g><g transform="matrix(1,0,0,1,0,0)"><path fill="none" stroke="none"/></g></g></g><g transform="matrix(1,0,0,1,35,13.5)"><text fill="#000000" stroke="none" font-family="Open Sans" font-size="12pt" font-style="normal" font-weight="normal" text-decoration="normal" x="55.21484375" y="12" text-anchor="middle" dominant-baseline="alphabetic">    Comparar     </text><text fill="#000000" stroke="none" font-family="Open Sans" font-size="12pt" font-style="normal" font-weight="normal" text-decoration="normal" x="55.21484375" y="27" text-anchor="middle" dominant-baseline="alphabetic"> Documentos   </text><text fill="#000000" stroke="none" font-family="Open Sans" font-size="12pt" font-style="normal" font-weight="normal" text-decoration="normal" x="55.21484375" y="42" text-anchor="middle" dominant-baseline="alphabetic">de Expediente </text><text fill="#000000" stroke="none" font-family="Open Sans" font-size="12pt" font-style="normal" font-weight="normal" text-decoration="normal" x="55.21484375" y="57" text-anchor="middle" dominant-baseline="alphabetic">   Físicos con    </text><text fill="#000000" stroke="none" font-family="Open Sans" font-size="12pt" font-style="normal" font-weight="normal" text-decoration="normal" x="55.21484375" y="72" text-anchor="middle" dominant-baseline="alphabetic">     Digitales      </text></g></g><g id="_1C11BBC4-B6E3-4E34-801E-14A5B52A3FB5" bpmn2nodeid="_1C11BBC4-B6E3-4E34-801E-14A5B52A3FB5" transform="matrix(1,0,0,1,2589,130)"><g><path fill="none" stroke="none"/></g><g transform="matrix(0.125,0,0,0.125,0,0)"><g transform="matrix(1,0,0,1,0,0)"><path fill="#fef4ea" stroke="none" id="_1C11BBC4-B6E3-4E34-801E-14A5B52A3FB5?shapeType=BACKGROUND" paint-order="stroke fill markers" d=" M 0 0 M 224.4 4.3 C 216.4 4.3 208.4 7.3 202.3 13.399999999999999 L 13.5 202.2 C 1.3000000000000007 214.39999999999998 1.3000000000000007 234.2 13.5 246.39999999999998 L 202.2 435.09999999999997 C 208.29999999999998 441.2 216.39999999999998 444.2 224.29999999999998 444.2 C 232.2 444.2 240.29999999999998 441.2 246.39999999999998 435.09999999999997 L 435.09999999999997 246.39999999999998 C 447.29999999999995 234.2 447.29999999999995 214.39999999999998 435.09999999999997 202.2 L 246.5 13.4 C 240.4 7.3 232.4 4.3 224.4 4.3 L 224.4 4.3 Z"/></g><g><g transform="matrix(1,0,0,1,0,0)"><g transform="matrix(1,0,0,1,0,0)"><path fill="#ec7a08" stroke="none" id="_1C11BBC4-B6E3-4E34-801E-14A5B52A3FB5?shapeType=BORDER&amp;renderType=FILL" paint-order="stroke fill markers" d=" M 0 0 M 20.8 212.7 L 213.3 20.2 C 219.60000000000002 13.899999999999999 229.70000000000002 13.899999999999999 235.9 20.2 L 428.4 212.7 C 434.7 219 434.7 229.1 428.4 235.29999999999998 L 235.9 427.8 C 229.6 434.1 219.5 434.1 213.3 427.8 L 20.8 235.3 C 14.5 229.1 14.5 218.9 20.8 212.7 L 20.8 212.7 Z M 0 0 M 0 224 C 0 232.1 3.1 240.3 9.3 246.5 L 201.5 438.7 C 213.9 451.09999999999997 234.1 451.09999999999997 246.5 438.7 L 438.7 246.5 C 444.9 240.3 448 232.1 448 224 C 448 215.9 444.9 207.7 438.7 201.5 L 246.5 9.3 C 234.1 -3.0999999999999996 213.9 -3.0999999999999996 201.5 9.3 L 9.3 201.5 C 3.1 207.7 0 215.9 0 224 L 0 224 Z"/></g></g></g><g><g transform="matrix(1,0,0,1,0,0)"><g transform="matrix(1,0,0,1,0,0)"><path fill="#ec7a08" stroke="none" id="_1C11BBC4-B6E3-4E34-801E-14A5B52A3FB5_exclusive" paint-order="stroke fill markers" d=" M 0 0 M 298.2 269.2 C 298.2 272.59999999999997 297.09999999999997 275.3 294.7 277.7 L 277.7 294.7 C 275.3 297.09999999999997 272.59999999999997 298.2 269.2 298.2 C 265.8 298.2 263.09999999999997 297.09999999999997 260.7 294.7 L 224 258 L 187.2 294.8 C 184.79999999999998 297.2 182.1 298.3 178.7 298.3 C 175.29999999999998 298.3 172.6 297.2 170.2 294.8 L 153.2 277.8 C 150.79999999999998 275.40000000000003 149.7 272.7 149.7 269.3 C 149.7 265.90000000000003 150.79999999999998 263.2 153.2 260.8 L 190 224 L 153.2 187.2 C 150.79999999999998 184.79999999999998 149.7 182 149.7 178.7 C 149.7 175.29999999999998 150.79999999999998 172.5 153.2 170.2 L 170.2 153.2 C 172.6 150.79999999999998 175.29999999999998 149.7 178.7 149.7 C 182.1 149.7 184.79999999999998 150.79999999999998 187.2 153.2 L 224 190 L 260.8 153.2 C 263.2 150.79999999999998 265.90000000000003 149.7 269.3 149.7 C 272.7 149.7 275.40000000000003 150.79999999999998 277.8 153.2 L 294.8 170.2 C 297.2 172.5 298.3 175.29999999999998 298.3 178.7 C 298.3 182 297.2 184.79999999999998 294.8 187.2 L 258 224 L 294.8 260.8 C 297.1 263.1 298.2 265.9 298.2 269.2 Z"/></g></g></g></g><g transform="matrix(1,0,0,1,-52.99609375,61)"><text fill="#000000" stroke="none" font-family="Open Sans" font-size="12pt" font-style="normal" font-weight="normal" text-decoration="normal" x="80.99609375" y="12" text-anchor="middle" dominant-baseline="alphabetic">¿Están Completos los </text><text fill="#000000" stroke="none" font-family="Open Sans" font-size="12pt" font-style="normal" font-weight="normal" text-decoration="normal" x="80.99609375" y="27" text-anchor="middle" dominant-baseline="alphabetic">       Documentos?       </text></g></g></g><g transform="matrix(1,0,0,1,24,2567)"/><g transform="matrix(1,0,0,1,2999,2697)"/><g transform="matrix(1,0,0,1,2201,2674)"/><g transform="matrix(1,0,0,1,2613,2697)"/><g id="_80B2A6BB-6AE3-4140-B64D-535D0D431B09" bpmn2nodeid="_80B2A6BB-6AE3-4140-B64D-535D0D431B09" transform="matrix(1,0,0,1,24,4)"><g><path fill="none" stroke="none"/></g><g transform="matrix(1,0,0,1,0,0)"><path fill="#f2f2f2" stroke="none" id="_80B2A6BB-6AE3-4140-B64D-535D0D431B09?shapeType=BACKGROUND" paint-order="stroke fill markers" d=" M 0 0 L 3801.5556640625 0 L 3801.5556640625 499.1111145019531 L 0 499.1111145019531 L 0 0 Z Z"/></g><g transform="matrix(1,0,0,1,0,0)"><path fill="none" stroke="#000000" id="_80B2A6BB-6AE3-4140-B64D-535D0D431B09?shapeType=BORDER&amp;renderType=STROKE" paint-order="fill stroke markers" d=" M 0 0 L 3801.5556640625 0 L 3801.5556640625 499.1111145019531 L 0 499.1111145019531 L 0 0 Z Z" stroke-miterlimit="10" stroke-width="0.5" stroke-dasharray=""/></g><g transform="matrix(-1.8369701987210297e-16,-1,1,-1.8369701987210297e-16,0,287.04383850097656)"><text fill="#000000" stroke="none" font-family="Open Sans" font-size="12pt" font-style="normal" font-weight="normal" text-decoration="normal" x="37.48828125" y="12" text-anchor="middle" dominant-baseline="alphabetic">Empleado</text></g><g id="_78C7D3AA-5959-4818-A5CF-B17EFCF255DE" bpmn2nodeid="_78C7D3AA-5959-4818-A5CF-B17EFCF255DE" transform="matrix(1,0,0,1,51,96)"><g><path fill="none" stroke="none"/></g><g transform="matrix(0.125,0,0,0.125,0,0)"><g transform="matrix(1,0,0,1,0,0)"><path fill="#e8fae6" stroke="none" id="_78C7D3AA-5959-4818-A5CF-B17EFCF255DE?shapeType=BACKGROUND" paint-order="stroke fill markers" d=" M 0 0 M 444 224 C 444 263.9 434.2 300.8 414.4 334.5 C 394.7 368.2 368 394.9 334.4 414.5 C 300.79999999999995 434.1 263.9 444 224 444 C 184.10000000000002 444 147.2 434.2 113.5 414.4 C 79.8 394.7 53.1 368 33.5 334.4 C 13.899999999999999 300.79999999999995 4 263.9 4 224 C 4 184.10000000000002 13.8 147.2 33.6 113.5 C 53.400000000000006 79.80000000000001 80.1 53.1 113.6 33.5 C 147.1 13.899999999999999 184.1 4 224 4 C 263.9 4 300.8 13.8 334.5 33.6 C 368.2 53.400000000000006 394.9 80.1 414.5 113.6 C 434.1 147.1 444 184.1 444 224 Z"/></g><g><g transform="matrix(1,0,0,1,0,0)"><g transform="matrix(1,0,0,1,0,0)"><path fill="#4aa241" stroke="none" id="_78C7D3AA-5959-4818-A5CF-B17EFCF255DE?shapeType=BORDER&amp;renderType=FILL" paint-order="stroke fill markers" d=" M 0 0 M 224 0 C 100.3 0 0 100.3 0 224 C 0 347.7 100.3 448 224 448 C 347.7 448 448 347.7 448 224 C 448 100.30000000000001 347.7 0 224 0 Z M 0 0 M 224 432 C 109.1 432 16 338.9 16 224 C 16 109.10000000000002 109.1 16 224 16 C 338.9 16 432 109.1 432 224 C 432 338.9 338.9 432 224 432 Z"/></g></g></g></g><g transform="matrix(1,0,0,1,28,61)"/></g><g id="_B50766D4-6A0E-45E8-8E96-3D267692CD87" bpmn2nodeid="_B50766D4-6A0E-45E8-8E96-3D267692CD87" transform="matrix(1,0,0,1,692,72)"><g><path fill="none" stroke="none"/></g><g transform="matrix(1,0,0,1,0,0)"><path fill="#ffffff" stroke="none" id="_B50766D4-6A0E-45E8-8E96-3D267692CD87?shapeType=BACKGROUND" paint-order="stroke fill markers" d=" M 2 0 L 208 0 L 208 0 A 2 2 0 0 1 210 2 L 210 102.66665649414062 L 210 102.66665649414062 A 2 2 0 0 1 208 104.66665649414062 L 2 104.66665649414062 L 2 104.66665649414062 A 2 2 0 0 1 0 102.66665649414062 L 0 2 L 0 2.0000000000000004 A 2 2 0 0 1 1.9999999999999996 0 Z"/></g><g transform="matrix(1,0,0,1,0,0)"><path fill="none" stroke="#000000" id="_B50766D4-6A0E-45E8-8E96-3D267692CD87?shapeType=BORDER&amp;renderType=STROKE" paint-order="fill stroke markers" d=" M 2 0 L 208 0 L 208 0 A 2 2 0 0 1 210 2 L 210 102.66665649414062 L 210 102.66665649414062 A 2 2 0 0 1 208 104.66665649414062 L 2 104.66665649414062 L 2 104.66665649414062 A 2 2 0 0 1 0 102.66665649414062 L 0 2 L 0 2.0000000000000004 A 2 2 0 0 1 1.9999999999999996 0 Z" stroke-miterlimit="10" stroke-width="1.5" stroke-dasharray=""/></g><g><g transform="matrix(0.06,0,0,0.06,9.4,9.4)"><g transform="matrix(1,0,0,1,0,0)"><path fill="#393f44" stroke="none" id="_B50766D4-6A0E-45E8-8E96-3D267692CD87_task__eJRz__HdxE" paint-order="stroke fill markers" d=" M 0 0 M 16 445.2101 C 16 440.86867 18.784312 431.12906000000004 22.001325 424.21728 C 35.767643 394.6402 77.282944 359.28049 129 333.08362 C 144.51625 325.22398 157.34689 319.96394 167.80739 317.17416 C 171.93153 316.07426 175.72913 314.41389999999996 176.5251 313.36265 C 178.89361 310.23449999999997 180.91404 302.90781 181.72673 294.5 L 182.5 286.5 L 178.50715 283.45457 C 166.30327 274.14645 154.2837 251.67767 148.03953 226.5 C 145.61086 216.70715 145.05603000000002 215.46246 142.98364 215.1579 C 141.70332000000002 214.96974 138.08302 212.24302 134.93852 209.09852 C 123.23314 197.39314000000002 116.89146000000001 177.37556 121.43982000000001 166.48978 C 123.00204000000001 162.75088 128.15457 159.00970999999998 131.75 159.00374 C 134.44781 158.99974 134.47062 158.60296 132.91375 138.78796 C 130.92658 113.4962 134.27903 92.26542699999999 143.13217 74.075676 C 152.23162 55.379835 167.56889 42.88208 189.04934 36.659507000000005 C 210.20334 30.531504000000005 237.79666 30.531504000000005 258.95065999999997 36.659507000000005 C 300.04166 48.562968000000005 318.95842 83.80634 314.95504999999997 141 C 314.31982999999997 150.075 313.62402 157.78816 313.4088 158.14035 C 313.19359 158.49254000000002 314.57532 159.07295000000002 316.47931 159.43014000000002 C 328.92867 161.76565000000002 330.98619 177.01772000000003 321.49638 196.62092 C 316.90319 206.10912000000002 309.35724 214.50797 304.81732 215.18517000000003 C 303.02259 215.45289000000002 302.2931 217.14618000000002 299.94277999999997 226.50000000000003 C 296.65948 239.56693 294.47402 245.30522000000002 287.94764 257.99534000000006 C 282.49071999999995 268.60596000000004 273.03466 281.10922000000005 268.10756999999995 284.2288300000001 L 264.87062 286.27832000000006 L 265.51815999999997 292.88916000000006 C 266.34490999999997 301.32961000000006 268.63948999999997 309.8706000000001 270.87735999999995 312.83742000000007 C 272.06735 314.4150200000001 275.00244999999995 315.78963000000005 280.0630699999999 317.13941000000005 C 291.06929999999994 320.0750300000001 303.61700999999994 325.27420000000006 320.99999999999994 334.10171 C 369.81470999999993 358.89104000000003 410.84810999999996 393.75797 425.03216 422.5 C 429.06985999999995 430.68183 432 440.23198 432 445.2101 L 432 448 L 224 448 L 16 448 L 16 445.2101 Z"/></g></g></g><g transform="matrix(1,0,0,1,32.03999999999999,16.346656494140632)"><g transform="matrix(0.04,0,0,0.04,63.36,69.12)"><g transform="matrix(1,0,0,1,0,0)"><path fill="none" stroke="none"/></g><g transform="matrix(1,0,0,1,0,0)"><path fill="none" stroke="none"/></g></g></g><g transform="matrix(1,0,0,1,35,29.833328247070312)"><text fill="#000000" stroke="none" font-family="Open Sans" font-size="12pt" font-style="normal" font-weight="normal" text-decoration="normal" x="72.6171875" y="12" text-anchor="middle" dominant-baseline="alphabetic">           Cargar            </text><text fill="#000000" stroke="none" font-family="Open Sans" font-size="12pt" font-style="normal" font-weight="normal" text-decoration="normal" x="72.6171875" y="27" text-anchor="middle" dominant-baseline="alphabetic">Documentación de </text><text fill="#000000" stroke="none" font-family="Open Sans" font-size="12pt" font-style="normal" font-weight="normal" text-decoration="normal" x="72.6171875" y="42" text-anchor="middle" dominant-baseline="alphabetic">          Soporte           </text></g></g><g id="_DD0638BB-BFBB-457B-A2D4-FFCAF681A22F" bpmn2nodeid="_DD0638BB-BFBB-457B-A2D4-FFCAF681A22F" transform="matrix(1,0,0,1,257,96)"><g><path fill="none" stroke="none"/></g><g transform="matrix(0.125,0,0,0.125,0,0)"><g transform="matrix(1,0,0,1,0,0)"><path fill="#fef4ea" stroke="none" id="_DD0638BB-BFBB-457B-A2D4-FFCAF681A22F?shapeType=BACKGROUND" paint-order="stroke fill markers" d=" M 0 0 M 224.4 4.3 C 216.4 4.3 208.4 7.3 202.3 13.399999999999999 L 13.5 202.2 C 1.3000000000000007 214.39999999999998 1.3000000000000007 234.2 13.5 246.39999999999998 L 202.2 435.09999999999997 C 208.29999999999998 441.2 216.39999999999998 444.2 224.29999999999998 444.2 C 232.2 444.2 240.29999999999998 441.2 246.39999999999998 435.09999999999997 L 435.09999999999997 246.39999999999998 C 447.29999999999995 234.2 447.29999999999995 214.39999999999998 435.09999999999997 202.2 L 246.5 13.4 C 240.4 7.3 232.4 4.3 224.4 4.3 L 224.4 4.3 Z"/></g><g><g transform="matrix(1,0,0,1,0,0)"><g transform="matrix(1,0,0,1,0,0)"><path fill="#ec7a08" stroke="none" id="_DD0638BB-BFBB-457B-A2D4-FFCAF681A22F?shapeType=BORDER&amp;renderType=FILL" paint-order="stroke fill markers" d=" M 0 0 M 20.8 212.7 L 213.3 20.2 C 219.60000000000002 13.899999999999999 229.70000000000002 13.899999999999999 235.9 20.2 L 428.4 212.7 C 434.7 219 434.7 229.1 428.4 235.29999999999998 L 235.9 427.8 C 229.6 434.1 219.5 434.1 213.3 427.8 L 20.8 235.3 C 14.5 229.1 14.5 218.9 20.8 212.7 L 20.8 212.7 Z M 0 0 M 0 224 C 0 232.1 3.1 240.3 9.3 246.5 L 201.5 438.7 C 213.9 451.09999999999997 234.1 451.09999999999997 246.5 438.7 L 438.7 246.5 C 444.9 240.3 448 232.1 448 224 C 448 215.9 444.9 207.7 438.7 201.5 L 246.5 9.3 C 234.1 -3.0999999999999996 213.9 -3.0999999999999996 201.5 9.3 L 9.3 201.5 C 3.1 207.7 0 215.9 0 224 L 0 224 Z"/></g></g></g><g><g transform="matrix(1,0,0,1,0,0)"><g transform="matrix(1,0,0,1,0,0)"><path fill="#ec7a08" stroke="none" id="_DD0638BB-BFBB-457B-A2D4-FFCAF681A22F_exclusive" paint-order="stroke fill markers" d=" M 0 0 M 298.2 269.2 C 298.2 272.59999999999997 297.09999999999997 275.3 294.7 277.7 L 277.7 294.7 C 275.3 297.09999999999997 272.59999999999997 298.2 269.2 298.2 C 265.8 298.2 263.09999999999997 297.09999999999997 260.7 294.7 L 224 258 L 187.2 294.8 C 184.79999999999998 297.2 182.1 298.3 178.7 298.3 C 175.29999999999998 298.3 172.6 297.2 170.2 294.8 L 153.2 277.8 C 150.79999999999998 275.40000000000003 149.7 272.7 149.7 269.3 C 149.7 265.90000000000003 150.79999999999998 263.2 153.2 260.8 L 190 224 L 153.2 187.2 C 150.79999999999998 184.79999999999998 149.7 182 149.7 178.7 C 149.7 175.29999999999998 150.79999999999998 172.5 153.2 170.2 L 170.2 153.2 C 172.6 150.79999999999998 175.29999999999998 149.7 178.7 149.7 C 182.1 149.7 184.79999999999998 150.79999999999998 187.2 153.2 L 224 190 L 260.8 153.2 C 263.2 150.79999999999998 265.90000000000003 149.7 269.3 149.7 C 272.7 149.7 275.40000000000003 150.79999999999998 277.8 153.2 L 294.8 170.2 C 297.2 172.5 298.3 175.29999999999998 298.3 178.7 C 298.3 182 297.2 184.79999999999998 294.8 187.2 L 258 224 L 294.8 260.8 C 297.1 263.1 298.2 265.9 298.2 269.2 Z"/></g></g></g></g><g transform="matrix(1,0,0,1,28,61)"/></g><g id="_0D8FB6EF-F1B4-4FE6-94FB-494E1583D39C" bpmn2nodeid="_0D8FB6EF-F1B4-4FE6-94FB-494E1583D39C" transform="matrix(1,0,0,1,378,73)"><g><path fill="none" stroke="none"/></g><g transform="matrix(1,0,0,1,0,0)"><path fill="#ffffff" stroke="none" id="_0D8FB6EF-F1B4-4FE6-94FB-494E1583D39C?shapeType=BACKGROUND" paint-order="stroke fill markers" d=" M 2 0 L 152 0 L 152 0 A 2 2 0 0 1 154 2 L 154 100 L 154 100 A 2 2 0 0 1 152 102 L 2 102 L 2 102 A 2 2 0 0 1 0 100 L 0 2 L 0 2.0000000000000004 A 2 2 0 0 1 1.9999999999999996 0 Z"/></g><g transform="matrix(1,0,0,1,0,0)"><path fill="none" stroke="#000000" id="_0D8FB6EF-F1B4-4FE6-94FB-494E1583D39C?shapeType=BORDER&amp;renderType=STROKE" paint-order="fill stroke markers" d=" M 2 0 L 152 0 L 152 0 A 2 2 0 0 1 154 2 L 154 100 L 154 100 A 2 2 0 0 1 152 102 L 2 102 L 2 102 A 2 2 0 0 1 0 100 L 0 2 L 0 2.0000000000000004 A 2 2 0 0 1 1.9999999999999996 0 Z" stroke-miterlimit="10" stroke-width="1.5" stroke-dasharray=""/></g><g><g transform="matrix(0.06,0,0,0.06,9.4,9.4)"><g transform="matrix(1,0,0,1,0,0)"><path fill="#393f44" stroke="none" id="_0D8FB6EF-F1B4-4FE6-94FB-494E1583D39C_task__eJRz__HdxE" paint-order="stroke fill markers" d=" M 0 0 M 16 445.2101 C 16 440.86867 18.784312 431.12906000000004 22.001325 424.21728 C 35.767643 394.6402 77.282944 359.28049 129 333.08362 C 144.51625 325.22398 157.34689 319.96394 167.80739 317.17416 C 171.93153 316.07426 175.72913 314.41389999999996 176.5251 313.36265 C 178.89361 310.23449999999997 180.91404 302.90781 181.72673 294.5 L 182.5 286.5 L 178.50715 283.45457 C 166.30327 274.14645 154.2837 251.67767 148.03953 226.5 C 145.61086 216.70715 145.05603000000002 215.46246 142.98364 215.1579 C 141.70332000000002 214.96974 138.08302 212.24302 134.93852 209.09852 C 123.23314 197.39314000000002 116.89146000000001 177.37556 121.43982000000001 166.48978 C 123.00204000000001 162.75088 128.15457 159.00970999999998 131.75 159.00374 C 134.44781 158.99974 134.47062 158.60296 132.91375 138.78796 C 130.92658 113.4962 134.27903 92.26542699999999 143.13217 74.075676 C 152.23162 55.379835 167.56889 42.88208 189.04934 36.659507000000005 C 210.20334 30.531504000000005 237.79666 30.531504000000005 258.95065999999997 36.659507000000005 C 300.04166 48.562968000000005 318.95842 83.80634 314.95504999999997 141 C 314.31982999999997 150.075 313.62402 157.78816 313.4088 158.14035 C 313.19359 158.49254000000002 314.57532 159.07295000000002 316.47931 159.43014000000002 C 328.92867 161.76565000000002 330.98619 177.01772000000003 321.49638 196.62092 C 316.90319 206.10912000000002 309.35724 214.50797 304.81732 215.18517000000003 C 303.02259 215.45289000000002 302.2931 217.14618000000002 299.94277999999997 226.50000000000003 C 296.65948 239.56693 294.47402 245.30522000000002 287.94764 257.99534000000006 C 282.49071999999995 268.60596000000004 273.03466 281.10922000000005 268.10756999999995 284.2288300000001 L 264.87062 286.27832000000006 L 265.51815999999997 292.88916000000006 C 266.34490999999997 301.32961000000006 268.63948999999997 309.8706000000001 270.87735999999995 312.83742000000007 C 272.06735 314.4150200000001 275.00244999999995 315.78963000000005 280.0630699999999 317.13941000000005 C 291.06929999999994 320.0750300000001 303.61700999999994 325.27420000000006 320.99999999999994 334.10171 C 369.81470999999993 358.89104000000003 410.84810999999996 393.75797 425.03216 422.5 C 429.06985999999995 430.68183 432 440.23198 432 445.2101 L 432 448 L 224 448 L 16 448 L 16 445.2101 Z"/></g></g></g><g transform="matrix(1,0,0,1,4.039999999999992,13.680000000000007)"><g transform="matrix(0.04,0,0,0.04,63.36,69.12)"><g transform="matrix(1,0,0,1,0,0)"><path fill="none" stroke="none"/></g><g transform="matrix(1,0,0,1,0,0)"><path fill="none" stroke="none"/></g></g></g><g transform="matrix(1,0,0,1,35,21)"><text fill="#000000" stroke="none" font-family="Open Sans" font-size="12pt" font-style="normal" font-weight="normal" text-decoration="normal" x="51.65625" y="12" text-anchor="middle" dominant-baseline="alphabetic">    Ingresar      </text><text fill="#000000" stroke="none" font-family="Open Sans" font-size="12pt" font-style="normal" font-weight="normal" text-decoration="normal" x="51.65625" y="27" text-anchor="middle" dominant-baseline="alphabetic"> Solicitud de   </text><text fill="#000000" stroke="none" font-family="Open Sans" font-size="12pt" font-style="normal" font-weight="normal" text-decoration="normal" x="51.65625" y="42" text-anchor="middle" dominant-baseline="alphabetic">  Ausencia o   </text><text fill="#000000" stroke="none" font-family="Open Sans" font-size="12pt" font-style="normal" font-weight="normal" text-decoration="normal" x="51.65625" y="57" text-anchor="middle" dominant-baseline="alphabetic">Llegada Tarde</text></g></g></g><g transform="matrix(1,0,0,1,24,4)"/><g transform="matrix(1,0,0,1,75,100)"/><g transform="matrix(1,0,0,1,716,76)"/><g transform="matrix(1,0,0,1,281,100)"/><g transform="matrix(1,0,0,1,402,77)"/><g id="_FED2CE2C-AE5F-49DC-88D0-1C680B210EF4" bpmn2nodeid="_FED2CE2C-AE5F-49DC-88D0-1C680B210EF4"><g><path fill="none" stroke="#000000" paint-order="fill stroke markers" d=" M 131 128 L 266 128" stroke-miterlimit="10" stroke-dasharray=""/></g><g transform="matrix(1,0,0,1,131,128)"/><g transform="matrix(6.123233995736766e-17,1,-1,6.123233995736766e-17,281,123)"><path fill="#000000" stroke="#000000" paint-order="fill stroke markers" d=" M 10 15 L 0 15 L 5 0 Z" stroke-miterlimit="10" stroke-dasharray=""/></g><g transform="matrix(1,0,0,1,131,118)"/></g><g id="_E5CA6BC3-1DCC-4174-9673-5C459CD33A17" bpmn2nodeid="_E5CA6BC3-1DCC-4174-9673-5C459CD33A17"><g><path fill="none" stroke="#000000" paint-order="fill stroke markers" d=" M 337 128 L 387 128" stroke-miterlimit="10" stroke-dasharray=""/></g><g transform="matrix(1,0,0,1,337,128)"/><g transform="matrix(6.123233995736766e-17,1,-1,6.123233995736766e-17,402,123)"><path fill="#000000" stroke="#000000" paint-order="fill stroke markers" d=" M 10 15 L 0 15 L 5 0 Z" stroke-miterlimit="10" stroke-dasharray=""/></g><g transform="matrix(1,0,0,1,337,118)"/></g><g id="_1F9FFCC7-3F89-4B4F-B922-70FF3FDE88B6" bpmn2nodeid="_1F9FFCC7-3F89-4B4F-B922-70FF3FDE88B6"><g><path fill="none" stroke="#000000" paint-order="fill stroke markers" d=" M 556 128.10829651909035 L 701.0000148357042 128.31223154343783" stroke-miterlimit="10" stroke-dasharray=""/></g><g transform="matrix(1,0,0,1,556,128.10829651909035)"/><g transform="matrix(-0.0014064469088319149,0.9999990109530572,-0.9999990109530572,-0.0014064469088319149,716.0070322345441,123.33333319230502)"><path fill="#000000" stroke="#000000" paint-order="fill stroke markers" d=" M 10 15 L 0 15 L 5 0 Z" stroke-miterlimit="10" stroke-dasharray=""/></g><g transform="matrix(1,0,0,1,556.0140644690883,118.22082227354976)"/></g><g id="_C14B4DDA-F274-48BD-967D-4FF0708E59B2" bpmn2nodeid="_C14B4DDA-F274-48BD-967D-4FF0708E59B2"><g><path fill="none" stroke="#000000" paint-order="fill stroke markers" d=" M 926 127.13974202459877 L 996.9403686523438 126.33332824707031 L 998.7526947529338 610.0001053020599" stroke-miterlimit="10" stroke-dasharray=""/></g><g transform="matrix(1,0,0,1,926,127.13974202459877)"/><g transform="matrix(-0.9999929798626769,0.0037470288715061298,-0.0037470288715061298,-0.9999929798626769,1003.8088650853198,624.9812648556425)"><path fill="#000000" stroke="#000000" paint-order="fill stroke markers" d=" M 10 15 L 0 15 L 5 0 Z" stroke-miterlimit="10" stroke-dasharray=""/></g><g transform="matrix(1,0,0,1,926.113667534521,116.73718117212289)"/></g><g id="_610E7D57-7389-43C4-A973-F8FF80551235" bpmn2nodeid="_610E7D57-7389-43C4-A973-F8FF80551235"><g><path fill="none" stroke="#000000" paint-order="fill stroke markers" d=" M 1076 676 L 1133 676" stroke-miterlimit="10" stroke-dasharray=""/></g><g transform="matrix(1,0,0,1,1076,676)"/><g transform="matrix(6.123233995736766e-17,1,-1,6.123233995736766e-17,1148,671)"><path fill="#000000" stroke="#000000" paint-order="fill stroke markers" d=" M 10 15 L 0 15 L 5 0 Z" stroke-miterlimit="10" stroke-dasharray=""/></g><g transform="matrix(1,0,0,1,1076,666)"/></g><g id="_B180408C-2359-421C-8A81-91F504875414" bpmn2nodeid="_B180408C-2359-421C-8A81-91F504875414"><g><path fill="none" stroke="#000000" paint-order="fill stroke markers" d=" M 1176 704 L 1176 855 L 309 855 L 309 171" stroke-miterlimit="10" stroke-dasharray=""/></g><g transform="matrix(1,0,0,1,1176,704)"/><g transform="matrix(1,0,0,1,304,156)"><path fill="#000000" stroke="#000000" paint-order="fill stroke markers" d=" M 10 15 L 0 15 L 5 0 Z" stroke-miterlimit="10" stroke-dasharray=""/></g><g transform="matrix(1,0,0,1,1186,768.5)"><text fill="#000000" stroke="none" font-family="Open Sans" font-size="10pt" font-style="normal" font-weight="normal" text-decoration="normal" x="0" y="8.8" text-anchor="start" dominant-baseline="alphabetic">No                                      </text></g></g><g id="_BD03229B-6FF2-4C20-A83A-7B615FEE7252" bpmn2nodeid="_BD03229B-6FF2-4C20-A83A-7B615FEE7252"><g><path fill="none" stroke="#000000" paint-order="fill stroke markers" d=" M 1204 676 L 1341 676 L 1343.6352371370074 1148.000233779318" stroke-miterlimit="10" stroke-dasharray=""/></g><g transform="matrix(1,0,0,1,1204,676)"/><g transform="matrix(-0.9999844147121376,0.005583039747625899,-0.005583039747625899,-0.9999844147121376,1348.7189048067823,1162.9720848012619)"><path fill="#000000" stroke="#000000" paint-order="fill stroke markers" d=" M 10 15 L 0 15 L 5 0 Z" stroke-miterlimit="10" stroke-dasharray=""/></g><g transform="matrix(1,0,0,1,1204,655)"><text fill="#000000" stroke="none" font-family="Open Sans" font-size="10pt" font-style="normal" font-weight="normal" text-decoration="normal" x="0" y="8.8" text-anchor="start" dominant-baseline="alphabetic">Si                                    </text></g></g><g id="_CF75C66F-2C57-4424-AFFE-94BF8E43B2B3" bpmn2nodeid="_CF75C66F-2C57-4424-AFFE-94BF8E43B2B3"><g><path fill="none" stroke="#000000" paint-order="fill stroke markers" d=" M 1433 1213.3333129882812 L 1496.0000000000045 1213.3333622859075" stroke-miterlimit="10" stroke-dasharray=""/></g><g transform="matrix(1,0,0,1,1433,1213.3333129882812)"/><g transform="matrix(-7.825020020222061e-7,0.9999999999996938,-0.9999999999996938,-7.825020020222061e-7,1511.00000391251,1208.333374023439)"><path fill="#000000" stroke="#000000" paint-order="fill stroke markers" d=" M 10 15 L 0 15 L 5 0 Z" stroke-miterlimit="10" stroke-dasharray=""/></g><g transform="matrix(1,0,0,1,1433.00000782502,1203.3333435058623)"/></g><g id="_E065C291-E703-4285-8EE9-BBEA20609AF9" bpmn2nodeid="_E065C291-E703-4285-8EE9-BBEA20609AF9"><g><path fill="none" stroke="#000000" paint-order="fill stroke markers" d=" M 1567 1213.3333740234375 L 1706.5244140625 1213.3333740234375 L 1705.6967363091699 1627.3334039999966" stroke-miterlimit="10" stroke-dasharray=""/></g><g transform="matrix(1,0,0,1,1567,1213.3333740234375)"/><g transform="matrix(-0.9999980015627243,-0.001999217486324291,0.001999217486324291,-0.9999980015627243,1710.6667380546887,1642.343370110869)"><path fill="#000000" stroke="#000000" paint-order="fill stroke markers" d=" M 10 15 L 0 15 L 5 0 Z" stroke-miterlimit="10" stroke-dasharray=""/></g><g transform="matrix(1,0,0,1,1567,1192.3333740234375)"><text fill="#000000" stroke="none" font-family="Open Sans" font-size="10pt" font-style="normal" font-weight="normal" text-decoration="normal" x="0" y="8.8" text-anchor="start" dominant-baseline="alphabetic">Si                                     </text></g></g><g id="_85AA4BF6-195E-431B-81CF-43440D9508DC" bpmn2nodeid="_85AA4BF6-195E-431B-81CF-43440D9508DC"><g><path fill="none" stroke="#000000" paint-order="fill stroke markers" d=" M 1786 1693.3333740234375 L 1851 1693.3333740234375" stroke-miterlimit="10" stroke-dasharray=""/></g><g transform="matrix(1,0,0,1,1786,1693.3333740234375)"/><g transform="matrix(6.123233995736766e-17,1,-1,6.123233995736766e-17,1866,1688.3333740234375)"><path fill="#000000" stroke="#000000" paint-order="fill stroke markers" d=" M 10 15 L 0 15 L 5 0 Z" stroke-miterlimit="10" stroke-dasharray=""/></g><g transform="matrix(1,0,0,1,1786,1683.3333740234375)"/></g><g id="_5DB4F272-E4A7-448E-8CAD-CBC971D1EF7B" bpmn2nodeid="_5DB4F272-E4A7-448E-8CAD-CBC971D1EF7B"><g><path fill="none" stroke="#000000" paint-order="fill stroke markers" d=" M 1894 1721.3333740234375 L 1894 1892 L 309 1892 L 309 171" stroke-miterlimit="10" stroke-dasharray=""/></g><g transform="matrix(1,0,0,1,1894,1721.3333740234375)"/><g transform="matrix(1,0,0,1,304,156)"><path fill="#000000" stroke="#000000" paint-order="fill stroke markers" d=" M 10 15 L 0 15 L 5 0 Z" stroke-miterlimit="10" stroke-dasharray=""/></g><g transform="matrix(1,0,0,1,1904,1795.6666870117188)"><text fill="#000000" stroke="none" font-family="Open Sans" font-size="10pt" font-style="normal" font-weight="normal" text-decoration="normal" x="0" y="8.8" text-anchor="start" dominant-baseline="alphabetic">No                                            </text></g></g><g id="_B37AFE1B-9DE9-4538-9490-6297564B624A" bpmn2nodeid="_B37AFE1B-9DE9-4538-9490-6297564B624A"><g><path fill="none" stroke="#000000" paint-order="fill stroke markers" d=" M 1922 1693.3333740234375 L 2072.66650390625 1693.3333740234375 L 2072.6666100474813 2142.0000000000005" stroke-miterlimit="10" stroke-dasharray=""/></g><g transform="matrix(1,0,0,1,1922,1693.3333740234375)"/><g transform="matrix(-0.999999999999972,2.3657036475366808e-7,-2.3657036475366808e-7,-0.999999999999972,2077.6666135960368,2156.999998817148)"><path fill="#000000" stroke="#000000" paint-order="fill stroke markers" d=" M 10 15 L 0 15 L 5 0 Z" stroke-miterlimit="10" stroke-dasharray=""/></g><g transform="matrix(1,0,0,1,1922,1672.3333740234375)"><text fill="#000000" stroke="none" font-family="Open Sans" font-size="10pt" font-style="normal" font-weight="normal" text-decoration="normal" x="0" y="8.8" text-anchor="start" dominant-baseline="alphabetic">Si                                        </text></g></g><g id="_EDE2A754-C699-4D7B-A587-C4BF4923AB52" bpmn2nodeid="_EDE2A754-C699-4D7B-A587-C4BF4923AB52"><g><path fill="none" stroke="#000000" paint-order="fill stroke markers" d=" M 2177 2209.137234763873 L 2235.000026505907 2209.0281988742545" stroke-miterlimit="10" stroke-dasharray=""/></g><g transform="matrix(1,0,0,1,2177,2209.137234763873)"/><g transform="matrix(0.0018799249502990353,0.9999982329395294,-0.9999982329395294,0.0018799249502990353,2249.9906003752485,2204.000008835302)"><path fill="#000000" stroke="#000000" paint-order="fill stroke markers" d=" M 10 15 L 0 15 L 5 0 Z" stroke-miterlimit="10" stroke-dasharray=""/></g><g transform="matrix(1,0,0,1,2177.018799249503,2199.0686350525416)"/></g><g id="_4C0FE890-B079-47BF-B622-8FE7C9B7D8B5" bpmn2nodeid="_4C0FE890-B079-47BF-B622-8FE7C9B7D8B5"><g><path fill="none" stroke="#000000" paint-order="fill stroke markers" d=" M 2278 2237 L 2278 2659" stroke-miterlimit="10" stroke-dasharray=""/></g><g transform="matrix(1,0,0,1,2278,2237)"/><g transform="matrix(-1,1.2246467991473532e-16,-1.2246467991473532e-16,-1,2283,2674)"><path fill="#000000" stroke="#000000" paint-order="fill stroke markers" d=" M 10 15 L 0 15 L 5 0 Z" stroke-miterlimit="10" stroke-dasharray=""/></g><g transform="matrix(1,0,0,1,2288,2455.5)"/></g><g id="_A58F2A8A-223E-49EC-977F-844F4A6D2762" bpmn2nodeid="_A58F2A8A-223E-49EC-977F-844F4A6D2762"><g><path fill="none" stroke="#000000" paint-order="fill stroke markers" d=" M 2355 2725 L 2598 2725" stroke-miterlimit="10" stroke-dasharray=""/></g><g transform="matrix(1,0,0,1,2355,2725)"/><g transform="matrix(6.123233995736766e-17,1,-1,6.123233995736766e-17,2613,2720)"><path fill="#000000" stroke="#000000" paint-order="fill stroke markers" d=" M 10 15 L 0 15 L 5 0 Z" stroke-miterlimit="10" stroke-dasharray=""/></g><g transform="matrix(1,0,0,1,2384,2715)"/></g><g id="_6EF16DA0-E49B-46C3-B7C9-FD56847B4C69" bpmn2nodeid="_6EF16DA0-E49B-46C3-B7C9-FD56847B4C69"><g><path fill="none" stroke="#000000" paint-order="fill stroke markers" d=" M 2669 2725 L 2984 2725" stroke-miterlimit="10" stroke-dasharray=""/></g><g transform="matrix(1,0,0,1,2669,2725)"/><g transform="matrix(6.123233995736766e-17,1,-1,6.123233995736766e-17,2999,2720)"><path fill="#000000" stroke="#000000" paint-order="fill stroke markers" d=" M 10 15 L 0 15 L 5 0 Z" stroke-miterlimit="10" stroke-dasharray=""/></g><g transform="matrix(1,0,0,1,2734,2704)"><text fill="#000000" stroke="none" font-family="Open Sans" font-size="10pt" font-style="normal" font-weight="normal" text-decoration="normal" x="0" y="8.8" text-anchor="start" dominant-baseline="alphabetic">Si                                                       </text></g></g><g id="_83410A3F-E24E-4FF8-A462-694ED6D63E18" bpmn2nodeid="_83410A3F-E24E-4FF8-A462-694ED6D63E18"><g><path fill="none" stroke="#000000" paint-order="fill stroke markers" d=" M 2641 2697 L 2641 2275" stroke-miterlimit="10" stroke-dasharray=""/></g><g transform="matrix(1,0,0,1,2641,2697)"/><g transform="matrix(1,0,0,1,2636,2260)"><path fill="#000000" stroke="#000000" paint-order="fill stroke markers" d=" M 10 15 L 0 15 L 5 0 Z" stroke-miterlimit="10" stroke-dasharray=""/></g><g transform="matrix(1,0,0,1,2651,2467.5)"><text fill="#000000" stroke="none" font-family="Open Sans" font-size="10pt" font-style="normal" font-weight="normal" text-decoration="normal" x="0" y="8.8" text-anchor="start" dominant-baseline="alphabetic">No                                                     </text></g></g><g id="_784E7B7F-B180-45D0-9E8E-5DBE73E0D139" bpmn2nodeid="_784E7B7F-B180-45D0-9E8E-5DBE73E0D139"><g><path fill="none" stroke="#000000" paint-order="fill stroke markers" d=" M 2564 2209 L 2321 2209" stroke-miterlimit="10" stroke-dasharray=""/></g><g transform="matrix(1,0,0,1,2564,2209)"/><g transform="matrix(-1.8369701987210297e-16,-1,1,-1.8369701987210297e-16,2306,2214)"><path fill="#000000" stroke="#000000" paint-order="fill stroke markers" d=" M 10 15 L 0 15 L 5 0 Z" stroke-miterlimit="10" stroke-dasharray=""/></g><g transform="matrix(1,0,0,1,2335,2199)"/></g><g id="_CD86797D-7D43-45DC-A662-3162ED059240" bpmn2nodeid="_CD86797D-7D43-45DC-A662-3162ED059240"><g><path fill="none" stroke="#000000" paint-order="fill stroke markers" d=" M 1539 1241.3333740234375 L 1539 1443 L 309 1443 L 309 171" stroke-miterlimit="10" stroke-dasharray=""/></g><g transform="matrix(1,0,0,1,1539,1241.3333740234375)"/><g transform="matrix(1,0,0,1,304,156)"><path fill="#000000" stroke="#000000" paint-order="fill stroke markers" d=" M 10 15 L 0 15 L 5 0 Z" stroke-miterlimit="10" stroke-dasharray=""/></g><g transform="matrix(1,0,0,1,1549,1331.1666870117188)"><text fill="#000000" stroke="none" font-family="Open Sans" font-size="10pt" font-style="normal" font-weight="normal" text-decoration="normal" x="0" y="8.8" text-anchor="start" dominant-baseline="alphabetic">No                                                     </text></g></g></g></g></svg>